<?xml version="1.0" encoding="UTF-8" standalone="no"?>
<!-- Created with Inkscape (http://www.inkscape.org/) -->

<svg
   xmlns:dc="http://purl.org/dc/elements/1.1/"
   xmlns:cc="http://creativecommons.org/ns#"
   xmlns:rdf="http://www.w3.org/1999/02/22-rdf-syntax-ns#"
   xmlns:svg="http://www.w3.org/2000/svg"
   xmlns="http://www.w3.org/2000/svg"
   xmlns:sodipodi="http://sodipodi.sourceforge.net/DTD/sodipodi-0.dtd"
   xmlns:inkscape="http://www.inkscape.org/namespaces/inkscape"
   width="473.931mm"
   height="473.931mm"
   viewBox="0 0 1679.2831 1679.2831"
   id="svg4199"
   version="1.1"
   inkscape:version="0.91 r13725"
   sodipodi:docname="assembler_transparent.svg">
  <defs
     id="defs4201" />
  <sodipodi:namedview
     id="base"
     pagecolor="#ffffff"
     bordercolor="#666666"
     borderopacity="1.0"
     inkscape:pageopacity="0.0"
     inkscape:pageshadow="2"
     inkscape:zoom="0.49497475"
     inkscape:cx="545.0955"
     inkscape:cy="929.67487"
     inkscape:document-units="px"
     inkscape:current-layer="layer1"
     showgrid="false"
     inkscape:window-width="1920"
     inkscape:window-height="1024"
     inkscape:window-x="0"
     inkscape:window-y="30"
     inkscape:window-maximized="1" />
  <metadata
     id="metadata4204">
    <rdf:RDF>
      <cc:Work
         rdf:about="">
        <dc:format>image/svg+xml</dc:format>
        <dc:type
           rdf:resource="http://purl.org/dc/dcmitype/StillImage" />
        <dc:title />
      </cc:Work>
    </rdf:RDF>
  </metadata>
  <g
     inkscape:label="Capa 1"
     inkscape:groupmode="layer"
     id="layer1"
     transform="translate(0,626.92087)">
    <path
       style="opacity:1;fill:#cccccc;fill-opacity:0.78431373;stroke:none;stroke-width:0;stroke-miterlimit:4;stroke-dasharray:none"
       d="M 837.72461 7.8554688 A 832.85712 832.85712 0 0 0 5 840.80078 A 832.85712 832.85712 0 0 0 837.90234 1673.5684 A 832.85712 832.85712 0 0 0 1670.7148 840.71094 L 1670.7148 840.5332 A 832.85712 832.85712 0 0 0 837.72461 7.8554688 z M 328.57227 359.2832 L 1331.4277 359.2832 L 1331.4277 647.85547 L 328.57227 647.85547 L 328.57227 359.2832 z M 328.57227 701.2832 L 1331.4277 701.2832 L 1331.4277 989.85547 L 328.57227 989.85547 L 328.57227 701.2832 z M 328.57227 1043.2832 L 1331.4277 1043.2832 L 1331.4277 1331.8555 L 328.57227 1331.8555 L 328.57227 1043.2832 z "
       transform="translate(0,-626.92087)"
       id="path4134" />
    <path
       style="fill:#cccccc;fill-rule:evenodd;stroke:none;stroke-width:1px;stroke-linecap:butt;stroke-linejoin:miter;stroke-opacity:1;fill-opacity:0.78431374"
       d="M 540 449.46094 L 523.21484 449.64062 L 481.25 558.74805 L 497.14258 558.74805 L 506.78516 530.5332 L 556.42773 530.5332 L 566.25 558.74805 L 581.42773 558.74805 L 540 449.46094 z M 531.42773 464.2832 L 551.60742 518.56836 L 511.42773 518.56836 L 531.42773 464.2832 z "
       transform="translate(0,-626.92087)"
       id="path4153" />
    <path
       style="fill:#cccccc;fill-rule:evenodd;stroke:none;stroke-width:1px;stroke-linecap:butt;stroke-linejoin:miter;stroke-opacity:1;fill-opacity:0.78431374"
       d="M 396.60742 449.2832 L 396.60742 558.92578 L 411.42773 558.74805 L 411.60742 512.49805 L 426.60742 512.67578 C 433.29771 513.69763 439.73368 512.04409 447.32227 522.49805 L 466.07227 558.92578 L 481.96484 558.74805 L 463.57227 522.67578 C 458.74118 514.41823 453.6997 509.09116 448.39258 507.49805 C 457.96035 504.61371 463.70294 498.17715 466.60742 489.10547 C 468.9799 474.44838 466.1288 471.39817 464.46484 465.71094 C 455.04017 448.88434 436.6697 449.66527 432.14258 449.2832 L 396.60742 449.2832 z M 430.35742 461.24805 C 434.82038 462.16384 444.50527 461.47744 450.17773 471.42578 C 451.8466 476.75823 452.42515 482.52721 450.53516 489.2832 C 446.15562 499.77995 436.37249 500.12723 430 500.35547 L 411.60742 500.17578 L 411.78516 461.60547 L 430.35742 461.24805 z "
       transform="translate(0,-626.92087)"
       id="path4146" />
    <path
       style="fill:#cccccc;fill-rule:evenodd;stroke:none;stroke-width:1px;stroke-linecap:butt;stroke-linejoin:miter;stroke-opacity:1;fill-opacity:0.78431374"
       d="M 538.39258 800.17578 L 498.66016 800.26562 L 498.57227 909.64062 L 538.57227 909.72852 C 557.23637 909.35136 568.39229 902.61953 572.67773 893.74805 C 578.73574 882.67238 575.4047 868.99799 573.21484 865.35352 C 569.12821 857.37652 562.05613 852.98234 553.21484 850.71094 C 561.34612 848.95251 566.20659 844.96528 569.10742 839.64062 C 573.16918 829.59002 572.01706 822.51923 569.46484 816.24805 C 564.95639 804.5917 549.72069 800.36143 538.39258 800.17578 z M 513.57227 812.31836 L 535.71484 812.49805 C 542.90679 812.96318 552.40457 813.46616 556.07227 823.0332 C 557.02778 828.54959 557.21621 833.93898 553.92773 838.74805 C 549.0878 845.3747 540.91353 845.04616 533.57227 845.5332 L 513.39258 845.35547 L 513.57227 812.31836 z M 538.21484 857.31836 C 550.15394 857.70069 558.22677 861.94789 560.17773 872.31836 C 560.52738 876.97426 561.15893 881.51305 558.75 887.31836 C 553.55451 897.85602 541.19775 897.38105 536.42773 897.49805 L 513.48242 897.49805 L 513.48242 857.49805 L 538.21484 857.31836 z "
       transform="translate(0,-626.92087)"
       id="path4202" />
    <path
       style="fill:#cccccc;fill-rule:evenodd;stroke:none;stroke-width:1px;stroke-linecap:butt;stroke-linejoin:miter;stroke-opacity:1;fill-opacity:0.78431374"
       d="m 592.32143,-177.45923 15.71429,0 27.14285,40.35714 27.5,-40.35714 16.07143,-0.17857 -35.53571,52.85714 37.5,56.42857 -16.25,0.17857 -30.53572,-46.60714 -30.53571,46.60714 c 0,0 -17.67858,0.535719 -16.60715,-0.178571 1.07143,-0.71428 39.28572,-58.214279 39.28572,-58.214279 z"
       id="path4151"
       inkscape:connector-curvature="0"
       sodipodi:nodetypes="ccccccccccscc" />
    <path
       style="fill:#cccccc;fill-rule:evenodd;stroke:none;stroke-width:1px;stroke-linecap:butt;stroke-linejoin:miter;stroke-opacity:1;fill-opacity:0.78431374"
       d="m 748.03572,-177.81637 0,109.64285 70.53571,0.17857 0,-12.85714 -55.89286,0.17857 -0.17857,-39.64285 52.32143,0.17857 0,-12.5 -52.14286,0.17857 0.35715,-32.5 54.10714,0 -0.17857,-12.67857 z"
       id="path4160"
       inkscape:connector-curvature="0" />
    <path
       id="path4162"
       d="m 888,-177.45993 -16.78516,0.17968 -41.96484,109.10743 15.89258,0 9.64258,-28.21485 49.64257,0 9.82227,28.21485 15.17773,0 L 888,-177.45993 Z m -8.57227,14.82226 20.17969,54.28516 -40.17969,0 20,-54.28516 z"
       style="fill:#cccccc;fill-rule:evenodd;stroke:none;stroke-width:1px;stroke-linecap:butt;stroke-linejoin:miter;stroke-opacity:1;fill-opacity:0.78431374"
       inkscape:connector-curvature="0" />
    <path
       sodipodi:nodetypes="ccccccccccscc"
       inkscape:connector-curvature="0"
       id="path4164"
       d="m 940.32143,-177.45923 15.71429,0 27.14285,40.35714 27.50003,-40.35714 16.0714,-0.17857 -35.53571,52.85714 37.50001,56.42857 -16.25,0.17857 -30.53573,-46.60714 -30.53571,46.60714 c 0,0 -17.67858,0.535719 -16.60715,-0.178571 1.07143,-0.71428 39.28572,-58.214279 39.28572,-58.214279 z"
       style="fill:#cccccc;fill-rule:evenodd;stroke:none;stroke-width:1px;stroke-linecap:butt;stroke-linejoin:miter;stroke-opacity:1;fill-opacity:0.78431374" />
    <path
       inkscape:connector-curvature="0"
       style="fill:#cccccc;fill-rule:evenodd;stroke:none;stroke-width:1px;stroke-linecap:butt;stroke-linejoin:miter;stroke-opacity:1;fill-opacity:0.78431374"
       d="m 1142,-177.45993 -16.7852,0.17968 -41.9648,109.10743 15.8926,0 9.6426,-28.21485 49.6425,0 9.8223,28.21485 15.1777,0 L 1142,-177.45993 Z m -8.5723,14.82226 20.1797,54.28516 -40.1797,0 20,-54.28516 z"
       id="path4166" />
    <path
       style="fill:#cccccc;fill-rule:evenodd;stroke:none;stroke-width:1px;stroke-linecap:butt;stroke-linejoin:miter;stroke-opacity:1;fill-opacity:0.78431374"
       d="m 1194.3214,-177.45923 15.7143,0 27.1429,40.35714 27.5,-40.35714 16.0714,-0.17857 -35.5357,52.85714 37.5,56.42857 -16.25,0.17857 -30.5357,-46.60714 -30.5357,46.60714 c 0,0 -17.6786,0.535719 -16.6072,-0.178571 1.0714,-0.71428 39.2857,-58.214279 39.2857,-58.214279 z"
       id="path4168"
       inkscape:connector-curvature="0"
       sodipodi:nodetypes="ccccccccccscc" />
    <path
       id="path4172"
       d="m 394.60742,172.36233 0,109.64258 14.82031,-0.17773 0.17969,-46.25 15,0.17773 c 6.69029,1.02185 13.12626,-0.63169 20.71485,9.82227 l 18.75,36.42773 15.89257,-0.17773 -18.39257,-36.07227 c -4.83109,-8.25755 -9.87257,-13.58462 -15.17969,-15.17773 9.56777,-2.88434 15.31036,-9.3209 18.21484,-18.39258 2.37248,-14.65709 -0.47862,-17.7073 -2.14258,-23.39453 -9.42467,-16.8266 -27.79514,-16.04567 -32.32226,-16.42774 l -35.53516,0 z m 33.75,11.96485 c 4.46296,0.91579 14.14785,0.22939 19.82031,10.17773 1.66887,5.33245 2.24742,11.10143 0.35743,17.85742 C 444.15562,222.85908 434.37249,223.20636 428,223.4346 l -18.39258,-0.17969 0.17774,-38.57031 18.57226,-0.35742 z"
       style="fill:#cccccc;fill-rule:evenodd;stroke:none;stroke-width:1px;stroke-linecap:butt;stroke-linejoin:miter;stroke-opacity:1;fill-opacity:0.78431374"
       inkscape:connector-curvature="0" />
    <path
       sodipodi:nodetypes="ccccccccccscc"
       inkscape:connector-curvature="0"
       id="path4174"
       d="m 590.32143,172.54077 15.71429,0 27.14285,40.35714 27.5,-40.35714 16.07143,-0.17857 -35.53571,52.85714 37.5,56.42857 -16.25,0.17857 -30.53572,-46.60714 -30.53571,46.60714 c 0,0 -17.67858,0.53572 -16.60715,-0.17857 1.07143,-0.71428 39.28572,-58.21428 39.28572,-58.21428 z"
       style="fill:#cccccc;fill-rule:evenodd;stroke:none;stroke-width:1px;stroke-linecap:butt;stroke-linejoin:miter;stroke-opacity:1;fill-opacity:0.78431374" />
    <path
       inkscape:connector-curvature="0"
       id="path4176"
       d="m 746.03572,172.18363 0,109.64285 70.53571,0.17857 0,-12.85714 -55.89286,0.17857 -0.17857,-39.64285 52.32143,0.17857 0,-12.5 -52.14286,0.17857 0.35715,-32.5 54.10714,0 -0.17857,-12.67857 z"
       style="fill:#cccccc;fill-rule:evenodd;stroke:none;stroke-width:1px;stroke-linecap:butt;stroke-linejoin:miter;stroke-opacity:1;fill-opacity:0.78431374" />
    <path
       style="fill:#cccccc;fill-rule:evenodd;stroke:none;stroke-width:1px;stroke-linecap:butt;stroke-linejoin:miter;stroke-opacity:1;fill-opacity:0.78431374"
       d="m 938.32143,172.54077 15.71429,0 27.14285,40.35714 27.50003,-40.35714 16.0714,-0.17857 -35.53571,52.85714 37.50001,56.42857 -16.25,0.17857 -30.53573,-46.60714 -30.53571,46.60714 c 0,0 -17.67858,0.53572 -16.60715,-0.17857 1.07143,-0.71428 39.28572,-58.21428 39.28572,-58.21428 z"
       id="path4180"
       inkscape:connector-curvature="0"
       sodipodi:nodetypes="ccccccccccscc" />
    <path
       sodipodi:nodetypes="ccccccccccscc"
       inkscape:connector-curvature="0"
       id="path4184"
       d="m 1192.3214,172.54077 15.7143,0 27.1429,40.35714 27.5,-40.35714 16.0714,-0.17857 -35.5357,52.85714 37.5,56.42857 -16.25,0.17857 -30.5357,-46.60714 -30.5357,46.60714 c 0,0 -17.6786,0.53572 -16.6072,-0.17857 1.0714,-0.71428 39.2857,-58.21428 39.2857,-58.21428 z"
       style="fill:#cccccc;fill-rule:evenodd;stroke:none;stroke-width:1px;stroke-linecap:butt;stroke-linejoin:miter;stroke-opacity:1;fill-opacity:0.78431374" />
    <path
       inkscape:connector-curvature="0"
       style="fill:#cccccc;fill-rule:evenodd;stroke:none;stroke-width:1px;stroke-linecap:butt;stroke-linejoin:miter;stroke-opacity:1;fill-opacity:0.78431374"
       d="m 394.60742,504.36233 0,109.64258 14.82031,-0.17773 0.17969,-46.25 15,0.17773 c 6.69029,1.02185 13.12626,-0.63169 20.71485,9.82227 l 18.75,36.42773 15.89257,-0.17773 -18.39257,-36.07227 c -4.83109,-8.25755 -9.87257,-13.58462 -15.17969,-15.17773 9.56777,-2.88434 15.31036,-9.3209 18.21484,-18.39258 2.37248,-14.65709 -0.47862,-17.7073 -2.14258,-23.39453 -9.42467,-16.8266 -27.79514,-16.04567 -32.32226,-16.42774 l -35.53516,0 z m 33.75,11.96485 c 4.46296,0.91579 14.14785,0.22939 19.82031,10.17773 1.66887,5.33245 2.24742,11.10143 0.35743,17.85742 C 444.15562,554.85908 434.37249,555.20636 428,555.4346 l -18.39258,-0.17969 0.17774,-38.57031 18.57226,-0.35742 z"
       id="path4188" />
    <path
       style="fill:#cccccc;fill-rule:evenodd;stroke:none;stroke-width:1px;stroke-linecap:butt;stroke-linejoin:miter;stroke-opacity:1;fill-opacity:0.78431374"
       d="m 590.32143,504.54077 15.71429,0 27.14285,40.35714 27.5,-40.35714 16.07143,-0.17857 -35.53571,52.85714 37.5,56.42857 -16.25,0.17857 -30.53572,-46.60714 -30.53571,46.60714 c 0,0 -17.67858,0.53572 -16.60715,-0.17857 1.07143,-0.71428 39.28572,-58.21428 39.28572,-58.21428 z"
       id="path4190"
       inkscape:connector-curvature="0"
       sodipodi:nodetypes="ccccccccccscc" />
    <path
       style="fill:#cccccc;fill-rule:evenodd;stroke:none;stroke-width:1px;stroke-linecap:butt;stroke-linejoin:miter;stroke-opacity:1;fill-opacity:0.78431374"
       d="m 746.03572,504.18363 0,109.64285 70.53571,0.17857 0,-12.85714 -55.89286,0.17857 -0.17857,-39.64285 52.32143,0.17857 0,-12.5 -52.14286,0.17857 0.35715,-32.5 54.10714,0 -0.17857,-12.67857 z"
       id="path4192"
       inkscape:connector-curvature="0" />
    <path
       sodipodi:nodetypes="ccccccccccscc"
       inkscape:connector-curvature="0"
       id="path4196"
       d="m 938.32143,504.54077 15.71429,0 27.14285,40.35714 27.50003,-40.35714 16.0714,-0.17857 -35.53571,52.85714 37.50001,56.42857 -16.25,0.17857 -30.53573,-46.60714 -30.53571,46.60714 c 0,0 -17.67858,0.53572 -16.60715,-0.17857 1.07143,-0.71428 39.28572,-58.21428 39.28572,-58.21428 z"
       style="fill:#cccccc;fill-rule:evenodd;stroke:none;stroke-width:1px;stroke-linecap:butt;stroke-linejoin:miter;stroke-opacity:1;fill-opacity:0.78431374" />
    <path
       style="fill:#cccccc;fill-rule:evenodd;stroke:none;stroke-width:1px;stroke-linecap:butt;stroke-linejoin:miter;stroke-opacity:1;fill-opacity:0.78431374"
       d="m 1192.3214,504.54077 15.7143,0 27.1429,40.35714 27.5,-40.35714 16.0714,-0.17857 -35.5357,52.85714 37.5,56.42857 -16.25,0.17857 -30.5357,-46.60714 -30.5357,46.60714 c 0,0 -17.6786,0.53572 -16.6072,-0.17857 1.0714,-0.71428 39.2857,-58.21428 39.2857,-58.21428 z"
       id="path4200"
       inkscape:connector-curvature="0"
       sodipodi:nodetypes="ccccccccccscc" />
    <path
       id="path4210"
       d="m 886.39258,173.25491 -39.73242,0.0898 -0.0879,109.375 40,0.0879 c 18.6641,-0.37716 29.82002,-7.10899 34.10546,-15.98047 6.05801,-11.07567 2.72697,-24.75006 0.53711,-28.39453 -4.08663,-7.977 -11.15871,-12.37118 -20,-14.64258 8.13128,-1.75843 12.99175,-5.74566 15.89258,-11.07032 4.06176,-10.0506 2.90964,-17.12139 0.35742,-23.39257 -4.50845,-11.65635 -19.74415,-15.88662 -31.07226,-16.07227 z m -24.82031,12.14258 22.14257,0.17969 c 7.19195,0.46513 16.68973,0.96811 20.35743,10.53515 0.95551,5.51639 1.14394,10.90578 -2.14454,15.71485 -4.83993,6.62665 -13.0142,6.29811 -20.35546,6.78515 l -20.17969,-0.17773 0.17969,-33.03711 z m 24.64257,45 c 11.9391,0.38233 20.01193,4.62953 21.96289,15 0.34965,4.6559 0.9812,9.19469 -1.42773,15 -5.19549,10.53766 -17.55225,10.06269 -22.32227,10.17969 l -22.94531,0 0,-40 24.73242,-0.17969 z"
       style="fill:#cccccc;fill-rule:evenodd;stroke:none;stroke-width:1px;stroke-linecap:butt;stroke-linejoin:miter;stroke-opacity:1;fill-opacity:0.78431374"
       inkscape:connector-curvature="0" />
    <path
       inkscape:connector-curvature="0"
       style="fill:#cccccc;fill-rule:evenodd;stroke:none;stroke-width:1px;stroke-linecap:butt;stroke-linejoin:miter;stroke-opacity:1;fill-opacity:0.78431374"
       d="m 1140.3926,173.25491 -39.7324,0.0898 -0.088,109.375 40,0.0879 c 18.6641,-0.37716 29.82,-7.10899 34.1054,-15.98047 6.058,-11.07567 2.727,-24.75006 0.5371,-28.39453 -4.0866,-7.977 -11.1587,-12.37118 -20,-14.64258 8.1313,-1.75843 12.9918,-5.74566 15.8926,-11.07032 4.0618,-10.0506 2.9096,-17.12139 0.3574,-23.39257 -4.5084,-11.65635 -19.7441,-15.88662 -31.0722,-16.07227 z m -24.8203,12.14258 22.1425,0.17969 c 7.192,0.46513 16.6898,0.96811 20.3575,10.53515 0.9555,5.51639 1.1439,10.90578 -2.1446,15.71485 -4.8399,6.62665 -13.0142,6.29811 -20.3554,6.78515 l -20.1797,-0.17773 0.1797,-33.03711 z m 24.6425,45 c 11.9391,0.38233 20.012,4.62953 21.9629,15 0.3497,4.6559 0.9812,9.19469 -1.4277,15 -5.1955,10.53766 -17.5522,10.06269 -22.3223,10.17969 l -22.9453,0 0,-40 24.7324,-0.17969 z"
       id="path4212" />
    <path
       style="fill:#cccccc;fill-rule:evenodd;stroke:none;stroke-width:1px;stroke-linecap:butt;stroke-linejoin:miter;stroke-opacity:1;fill-opacity:0.78431374"
       d="m 573.03572,528.61223 0.17857,-15.5357 c -14.88939,-9.5682 -29.2116,-10.81769 -43.39286,-10 -24.95203,4.03838 -33.35677,16.78586 -40.53571,30.1785 -7.13377,21.3553 -3.93134,41.97368 0.35714,52.67857 9.06066,19.31034 20.19603,23.75458 27.67857,27.14293 11.56731,3.14538 25.15394,4.83038 38.92857,0.7142 6.6539,-2.22203 12.0313,-4.92276 16.78572,-7.8571 l 0,-15.5357 c -7.89102,8.09048 -17.60158,11.45014 -27.85715,13.3928 -8.55787,0.8109 -17.34566,1.11886 -29.64285,-6.25 -7.34949,-5.88949 -13.60162,-14.05812 -14.82143,-32.6785 -0.29541,-10.7794 0.38055,-20.93027 4.10714,-29.1072 1.43325,-4.28975 6.56923,-13.69377 21.25,-19.1071 10.916,-3.03406 20.20735,-2.0065 28.75,0.8928 7.0367,2.17365 12.83459,6.294 18.21429,11.0715 z"
       id="path4214"
       inkscape:connector-curvature="0"
       sodipodi:nodetypes="cccccccccccccccc" />
    <path
       sodipodi:nodetypes="cccccccccccccccc"
       inkscape:connector-curvature="0"
       id="path4216"
       d="m 923.03572,528.61223 0.17857,-15.5357 c -14.88939,-9.5682 -29.2116,-10.81769 -43.39286,-10 -24.95203,4.03838 -33.35677,16.78586 -40.53571,30.1785 -7.13377,21.3553 -3.93134,41.97368 0.35714,52.67857 9.06066,19.31034 20.19603,23.75458 27.67857,27.14293 11.56731,3.14538 25.15394,4.83038 38.92857,0.7142 6.6539,-2.22203 12.0313,-4.92276 16.78572,-7.8571 l 0,-15.5357 c -7.89102,8.09048 -17.60158,11.45014 -27.85715,13.3928 -8.55787,0.8109 -17.34566,1.11886 -29.64285,-6.25 -7.34949,-5.88949 -13.60162,-14.05812 -14.82143,-32.6785 -0.29541,-10.7794 0.38055,-20.93027 4.10714,-29.1072 1.43325,-4.28975 6.56923,-13.69377 21.25,-19.1071 10.916,-3.03406 20.20735,-2.0065 28.75,0.8928 7.0367,2.17365 12.83459,6.294 18.21429,11.0715 z"
       style="fill:#cccccc;fill-rule:evenodd;stroke:none;stroke-width:1px;stroke-linecap:butt;stroke-linejoin:miter;stroke-opacity:1;fill-opacity:0.78431374" />
    <path
       style="fill:#cccccc;fill-rule:evenodd;stroke:none;stroke-width:1px;stroke-linecap:butt;stroke-linejoin:miter;stroke-opacity:1;fill-opacity:0.78431374"
       d="m 1179.0357,528.61223 0.1786,-15.5357 c -14.8894,-9.5682 -29.2116,-10.81769 -43.3929,-10 -24.952,4.03838 -33.3567,16.78586 -40.5357,30.1785 -7.1338,21.3553 -3.9313,41.97368 0.3572,52.67857 9.0606,19.31034 20.196,23.75458 27.6785,27.14293 11.5673,3.14538 25.154,4.83038 38.9286,0.7142 6.6539,-2.22203 12.0313,-4.92276 16.7857,-7.8571 l 0,-15.5357 c -7.891,8.09048 -17.6016,11.45014 -27.8571,13.3928 -8.5579,0.8109 -17.3457,1.11886 -29.6429,-6.25 -7.3495,-5.88949 -13.6016,-14.05812 -14.8214,-32.6785 -0.2954,-10.7794 0.3805,-20.93027 4.1071,-29.1072 1.4333,-4.28975 6.5693,-13.69377 21.25,-19.1071 10.916,-3.03406 20.2074,-2.0065 28.75,0.8928 7.0367,2.17365 12.8346,6.294 18.2143,11.0715 z"
       id="path4218"
       inkscape:connector-curvature="0"
       sodipodi:nodetypes="cccccccccccccccc" />
  </g>
</svg>
