<?xml version="1.0" encoding="UTF-8" standalone="no"?>
<!-- Created with Inkscape (http://www.inkscape.org/) -->

<svg
   xmlns:dc="http://purl.org/dc/elements/1.1/"
   xmlns:cc="http://creativecommons.org/ns#"
   xmlns:rdf="http://www.w3.org/1999/02/22-rdf-syntax-ns#"
   xmlns:svg="http://www.w3.org/2000/svg"
   xmlns="http://www.w3.org/2000/svg"
   xmlns:sodipodi="http://sodipodi.sourceforge.net/DTD/sodipodi-0.dtd"
   xmlns:inkscape="http://www.inkscape.org/namespaces/inkscape"
   width="473.931mm"
   height="473.931mm"
   viewBox="0 0 1679.2831 1679.2831"
   id="svg4199"
   version="1.1"
   inkscape:version="0.91 r13725"
   sodipodi:docname="autocad_transparent.svg">
  <defs
     id="defs4201" />
  <sodipodi:namedview
     id="base"
     pagecolor="#ffffff"
     bordercolor="#666666"
     borderopacity="1.0"
     inkscape:pageopacity="0.0"
     inkscape:pageshadow="2"
     inkscape:zoom="0.35"
     inkscape:cx="301.37199"
     inkscape:cy="908.71197"
     inkscape:document-units="px"
     inkscape:current-layer="layer1"
     showgrid="false"
     inkscape:window-width="1920"
     inkscape:window-height="1024"
     inkscape:window-x="0"
     inkscape:window-y="30"
     inkscape:window-maximized="1" />
  <metadata
     id="metadata4204">
    <rdf:RDF>
      <cc:Work
         rdf:about="">
        <dc:format>image/svg+xml</dc:format>
        <dc:type
           rdf:resource="http://purl.org/dc/dcmitype/StillImage" />
        <dc:title></dc:title>
      </cc:Work>
    </rdf:RDF>
  </metadata>
  <g
     inkscape:label="Capa 1"
     inkscape:groupmode="layer"
     id="layer1"
     transform="translate(0,626.92087)">
    <path
       style="opacity:1;fill:#cccccc;fill-opacity:0.78431373;stroke:none;stroke-width:0;stroke-miterlimit:4;stroke-dasharray:none"
       d="M 859.45312 2.3847656 A 834.28571 834.28571 0 0 0 693.35156 15.001953 A 834.28571 834.28571 0 0 0 12.597656 948.75781 A 834.28571 834.28571 0 0 0 917.82812 1667.0059 A 834.28571 834.28571 0 0 0 1672.377 791.80273 L 1654.0781 657.13281 A 834.28571 834.28571 0 0 0 859.45312 2.3847656 z M 731.5625 315.2832 L 944.58008 316.69922 L 961.08594 315.28516 C 1098.1118 542.59422 1174.2123 757.889 1235.8574 968.36523 C 1267.8371 1072.2905 1295.0844 1173.5621 1320.291 1270.7246 C 1323.5027 1282.1163 1326.7326 1293.5039 1330 1304.8887 C 1329.112 1302.5889 1328.2276 1300.2756 1327.3398 1297.9746 C 1327.8718 1300.0379 1328.4111 1302.1203 1328.9414 1304.1797 L 1267.6406 1327.0723 L 1267.6348 1327.0723 L 1143.4512 1336.2305 L 1075.8457 1296.5488 C 1084.7388 1219.6417 1046.3458 1132.5386 1020.2793 1048.0898 C 990.18228 1050.8281 959.89036 1054.0206 929.43359 1057.5762 L 858.67383 1067.0215 L 758.32227 1080.9395 C 727.92884 1085.6281 697.39425 1090.5919 666.73828 1095.7695 C 656.19082 1156.4067 645.14905 1216.5577 646.67773 1288.918 L 553.93359 1339.2832 L 434.44531 1330.125 L 370 1307.2324 C 370.86118 1303.8866 371.79441 1300.1919 372.72461 1296.5195 C 384.06808 1240.1165 412.90347 1125.3096 454.88086 987.7207 C 492.54314 860.35328 542.15755 712.35263 606.21094 564.96875 C 643.57544 476.82599 684.08747 392.62327 726.85156 319.86328 L 728.93555 319.81055 C 729.81113 318.30146 730.68323 316.78932 731.5625 315.2832 z M 848.71484 588.64258 C 848.57395 588.64577 848.43118 588.66101 848.28516 588.6875 C 848.1934 588.70415 848.09767 588.73206 848.00391 588.75781 C 847.93751 588.77629 847.87208 588.79144 847.80469 588.81445 C 847.74711 588.83391 847.68721 588.86006 847.62891 588.88281 C 847.52667 588.92305 847.42476 588.96338 847.32031 589.01367 C 847.27309 589.03626 847.22541 589.06521 847.17773 589.08984 C 847.06856 589.14658 846.95917 589.20606 846.84766 589.27344 C 846.745 589.33518 846.63588 589.4254 846.53125 589.49609 C 846.28584 589.66261 846.03931 589.83179 845.7832 590.04688 C 845.69193 590.12327 845.59652 590.22024 845.50391 590.30273 C 845.23419 590.54366 844.96258 590.79604 844.68164 591.08789 C 844.5895 591.18342 844.49372 591.29554 844.40039 591.39648 C 844.10847 591.71278 843.81317 592.04173 843.50977 592.41016 C 843.42451 592.51353 843.33615 592.62889 843.25 592.73633 C 842.93131 593.13432 842.6081 593.55116 842.27734 594.00391 C 842.19928 594.11065 842.11974 594.22618 842.04102 594.33594 C 841.69255 594.82223 841.33977 595.33067 840.97852 595.875 C 840.91133 595.97615 840.84302 596.08241 840.77539 596.18555 C 840.40795 596.74637 840.03441 597.33282 839.6543 597.95117 C 839.57431 598.08121 839.49265 598.2151 839.41211 598.34766 C 839.01021 599.00949 838.60489 599.69471 838.18945 600.41797 C 838.16264 600.46465 838.13622 600.51166 838.10938 600.55859 C 837.6449 601.36991 837.17221 602.21616 836.69141 603.10156 C 836.1966 604.01275 835.69318 604.96212 835.18164 605.94922 C 834.81615 606.6545 834.44214 607.40162 834.06836 608.14453 C 833.35652 609.55888 832.62952 611.03409 831.88867 612.58008 C 830.95063 614.53805 829.9858 616.62039 829.00391 618.77734 C 828.86822 619.07538 828.73806 619.34479 828.60156 619.64648 C 821.7859 634.71267 813.97206 654.3179 805.63477 676.28516 C 803.75475 681.23889 801.83193 686.38128 799.9043 691.55078 C 798.02067 696.60196 796.11402 701.75093 794.19531 706.96094 C 793.20227 709.65764 792.21522 712.32876 791.21484 715.05859 C 788.9984 721.10639 786.77047 727.21165 784.5293 733.37109 C 783.79129 735.39952 783.05794 737.40591 782.31836 739.44141 C 781.39826 741.97353 780.48016 744.49255 779.55859 747.03125 C 775.90789 757.08888 772.26152 767.12223 768.62891 777.0957 C 767.3656 780.56389 766.09948 784.05275 764.84375 787.48633 C 763.55965 790.99773 762.2967 794.41115 761.02344 797.87305 C 759.31356 802.52173 757.59615 807.20343 755.91211 811.73438 C 755.4432 812.99606 754.97827 814.23734 754.51172 815.48828 C 753.67807 817.72336 752.84495 819.96057 752.01953 822.1582 C 751.36157 823.91006 750.71083 825.62383 750.05859 827.34961 C 749.31725 829.31106 748.57512 831.28014 747.8418 833.20508 C 747.26738 834.71298 746.70195 836.17629 746.13281 837.66016 C 745.3442 839.71614 744.55314 841.78252 743.77539 843.78906 C 743.2403 845.16962 742.71906 846.49593 742.18945 847.85156 C 741.40253 849.86573 740.61002 851.89779 739.83594 853.85352 C 739.22069 855.40802 738.62228 856.88708 738.01562 858.40234 C 737.35903 860.04237 736.69477 861.72094 736.04883 863.3125 C 734.79441 866.40335 733.55874 869.40517 732.34766 872.29883 L 924.14258 768.53125 C 906.87032 725.88435 894.38424 673.16833 876.10938 632.02734 C 876.05327 631.90109 875.99956 631.77057 875.94336 631.64453 C 875.93606 631.62816 875.92916 631.61207 875.92188 631.5957 C 874.33167 628.03064 872.6967 624.55487 871.01172 621.17969 C 870.16536 619.48435 869.30649 617.81394 868.43359 616.17188 C 866.06954 611.72469 863.59427 607.49975 861.01172 603.49219 C 860.73355 603.06056 860.46452 602.61162 860.18359 602.18555 C 860.18048 602.18082 860.17694 602.17659 860.17383 602.17188 C 859.87629 601.72073 859.5663 601.29442 859.26562 600.84961 C 858.59394 599.8559 857.92608 598.85575 857.23828 597.89453 C 856.74202 597.20101 856.24123 596.51593 855.73633 595.83984 C 855.73468 595.83764 855.73212 595.83619 855.73047 595.83398 C 855.22501 595.15725 854.71551 594.4889 854.20117 593.83008 C 854.20004 593.82863 854.1984 593.82762 854.19727 593.82617 C 853.68236 593.16669 853.16464 592.51608 852.64062 591.875 L 852.63867 591.87305 C 852.11407 591.23128 851.58474 590.59944 851.05078 589.97656 C 850.59967 589.35454 850.08759 588.95864 849.54102 588.76953 C 849.27633 588.67805 849.0011 588.6361 848.71484 588.64258 z "
       transform="translate(0,-626.92087)"
       id="path4183" />
  </g>
</svg>
