<?xml version="1.0" encoding="UTF-8" standalone="no"?>
<!-- Generator: Adobe Illustrator 19.0.0, SVG Export Plug-In . SVG Version: 6.00 Build 0)  -->

<svg
   xmlns:dc="http://purl.org/dc/elements/1.1/"
   xmlns:cc="http://creativecommons.org/ns#"
   xmlns:rdf="http://www.w3.org/1999/02/22-rdf-syntax-ns#"
   xmlns:svg="http://www.w3.org/2000/svg"
   xmlns="http://www.w3.org/2000/svg"
   xmlns:sodipodi="http://sodipodi.sourceforge.net/DTD/sodipodi-0.dtd"
   xmlns:inkscape="http://www.inkscape.org/namespaces/inkscape"
   version="1.1"
   id="Layer_1"
   x="0px"
   y="0px"
   viewBox="0 0 473.931 473.931"
   xml:space="preserve"
   inkscape:version="0.91 r13725"
   sodipodi:docname="blender_material.svg"
   width="473.931"
   height="473.931"><metadata
     id="metadata51"><rdf:RDF><cc:Work
         rdf:about=""><dc:format>image/svg+xml</dc:format><dc:type
           rdf:resource="http://purl.org/dc/dcmitype/StillImage" /><dc:title></dc:title></cc:Work></rdf:RDF></metadata><defs
     id="defs49" /><sodipodi:namedview
     pagecolor="#ffffff"
     bordercolor="#666666"
     borderopacity="1"
     objecttolerance="10"
     gridtolerance="10"
     guidetolerance="10"
     inkscape:pageopacity="0"
     inkscape:pageshadow="2"
     inkscape:window-width="1920"
     inkscape:window-height="1024"
     id="namedview47"
     showgrid="false"
     inkscape:zoom="1.4084514"
     inkscape:cx="351.09538"
     inkscape:cy="149.60639"
     inkscape:window-x="0"
     inkscape:window-y="30"
     inkscape:window-maximized="1"
     inkscape:current-layer="Layer_1" /><ellipse
     style="opacity:1;fill:#ff9955;fill-opacity:1;stroke:none"
     id="path4747"
     ry="236.58896"
     rx="236.08693"
     cy="236.58894"
     cx="237.09099" /><path
     style="fill:#ff8741;fill-opacity:1"
     d="m 404.518,69.383 c 91.95282,92.30536 92.549,242.59 0,335.138 -92.541,92.541 -248.39482,89.73668 -333.376841,0.75307 z"
     id="path5"
     inkscape:connector-curvature="0"
     sodipodi:nodetypes="cscc" /><g
     id="g9"
     style="fill:#df6b3d;fill-opacity:1"><polygon
       style="fill:#df6b3d;fill-opacity:1"
       points="465.097,301.017 465.097,301.017 465.082,301.07 "
       id="polygon11" /><path
       style="fill:#df6b3d;fill-opacity:1"
       d="M 464.41223,304.83153 369.79707,206.55081 193.72369,241.64584 84.753464,317.938 208.44783,470.84102 c 123.81255,21.50418 234.33166,-77.34126 255.9644,-166.00949 z"
       id="path13"
       inkscape:connector-curvature="0"
       sodipodi:nodetypes="cccccc" /></g><g
     id="g17" /><g
     id="g19" /><g
     id="g21" /><g
     id="g23" /><g
     id="g25" /><g
     id="g27" /><g
     id="g29" /><g
     id="g31" /><g
     id="g33" /><g
     id="g35" /><g
     id="g37" /><g
     id="g39" /><g
     id="g41" /><g
     id="g43" /><g
     id="g45" /><g
     id="g4289"
     transform="matrix(1.2902288,0,0,1.3047851,-639.73357,30.920294)"><ellipse
       ry="46.439213"
       rx="51.083138"
       cy="174.96286"
       cx="715.7915"
       id="path4251"
       style="opacity:1;fill:#ffffff;fill-opacity:1;stroke:#000000;stroke-width:0;stroke-miterlimit:4;stroke-dasharray:none" /><path
       id="path4253"
       d="m 715.79102,104.17383 a 84.21814,77.440529 0 0 0 -84.2168,77.4414 84.21814,77.440529 0 0 0 84.2168,77.43946 84.21814,77.440529 0 0 0 84.21875,-77.43946 84.21814,77.440529 0 0 0 -84.21875,-77.4414 z m 0,24.34961 a 51.083138,46.439213 0 0 1 51.08398,46.43945 51.083138,46.439213 0 0 1 -51.08398,46.43945 51.083138,46.439213 0 0 1 -51.08399,-46.43945 51.083138,46.439213 0 0 1 51.08399,-46.43945 z"
       style="opacity:1;fill:#ff7021;fill-opacity:1;stroke:#000000;stroke-width:0;stroke-miterlimit:4;stroke-dasharray:none"
       inkscape:connector-curvature="0" /><ellipse
       ry="29.949192"
       rx="33.000835"
       cy="173.6799"
       cx="716.84491"
       id="path4249"
       style="opacity:1;fill:#005385;fill-opacity:1;stroke:#000000;stroke-width:0;stroke-miterlimit:4;stroke-dasharray:none" /><path
       id="path4255"
       d="m 685.0293,61.390625 c -4.01845,-0.03962 -8.41921,0.819318 -10.78125,3.875 -3.57914,3.843186 -4.86193,8.049447 0.50195,13.304687 l 30.62305,25.603518 -100.15625,1.0039 c -3.45101,1.19527 -10.81593,2.22002 -13.05469,11.79883 -0.65251,6.35901 3.61037,10.78105 10.79492,11.79883 l 50.45508,0 -90.69336,69.10352 c -2.60364,2.457 -5.50176,7.72288 -4.76953,15.56445 1.44569,3.87464 3.20532,6.70094 5.59766,8.20898 5.89147,3.14232 12.30607,3.80119 20.08203,-2.00781 l 47.94531,-39.1582 33.6582,-11.77735 a 51.083138,46.439213 0 0 1 50.5586,-40.18554 51.083138,46.439213 0 0 1 32.95703,10.96094 l 29.17187,-10.20704 -85.34765,-66.773434 c -1.52376,-0.508845 -4.41751,-1.082463 -7.54297,-1.113281 z"
       style="fill:#ff7021;fill-opacity:1;fill-rule:evenodd;stroke:none;stroke-width:1px;stroke-linecap:butt;stroke-linejoin:miter;stroke-opacity:1"
       inkscape:connector-curvature="0" /></g></svg>