<?xml version="1.0" encoding="UTF-8" standalone="no"?>
<!-- Generator: Adobe Illustrator 19.0.0, SVG Export Plug-In . SVG Version: 6.00 Build 0)  -->

<svg
   xmlns:dc="http://purl.org/dc/elements/1.1/"
   xmlns:cc="http://creativecommons.org/ns#"
   xmlns:rdf="http://www.w3.org/1999/02/22-rdf-syntax-ns#"
   xmlns:svg="http://www.w3.org/2000/svg"
   xmlns="http://www.w3.org/2000/svg"
   xmlns:sodipodi="http://sodipodi.sourceforge.net/DTD/sodipodi-0.dtd"
   xmlns:inkscape="http://www.inkscape.org/namespaces/inkscape"
   version="1.1"
   id="Layer_1"
   x="0px"
   y="0px"
   viewBox="0 0 473.931 473.931"
   xml:space="preserve"
   inkscape:version="0.91 r13725"
   sodipodi:docname="django_material.svg"
   width="473.931"
   height="473.931"><metadata
     id="metadata51"><rdf:RDF><cc:Work
         rdf:about=""><dc:format>image/svg+xml</dc:format><dc:type
           rdf:resource="http://purl.org/dc/dcmitype/StillImage" /><dc:title></dc:title></cc:Work></rdf:RDF></metadata><defs
     id="defs49" /><sodipodi:namedview
     pagecolor="#ffffff"
     bordercolor="#666666"
     borderopacity="1"
     objecttolerance="10"
     gridtolerance="10"
     guidetolerance="10"
     inkscape:pageopacity="0"
     inkscape:pageshadow="2"
     inkscape:window-width="1920"
     inkscape:window-height="1024"
     id="namedview47"
     showgrid="false"
     inkscape:zoom="1.4084514"
     inkscape:cx="432.60404"
     inkscape:cy="212.36209"
     inkscape:window-x="0"
     inkscape:window-y="30"
     inkscape:window-maximized="1"
     inkscape:current-layer="Layer_1" /><ellipse
     style="opacity:1;fill:#0f4e32;fill-opacity:1;stroke:none"
     id="path4747"
     ry="236.58896"
     rx="236.08693"
     cy="236.58894"
     cx="237.09099" /><path
     style="fill:#0c3d2a;fill-opacity:1"
     d="m 404.518,69.383 c 90.53282,96.56536 92.549,242.59 0,335.138 -92.541,92.541 -240.58482,89.02668 -333.376841,0.75307 z"
     id="path5"
     inkscape:connector-curvature="0"
     sodipodi:nodetypes="cscc" /><path
     style="fill:#4a86c5"
     d="m 462.646,309.275 c 0.868,-2.713 1.658,-5.456 2.432,-8.206 -0.771,2.754 -1.582,5.493 -2.432,8.206 z"
     id="path7"
     inkscape:connector-curvature="0" /><g
     id="g9"
     style="fill:#092e20;fill-opacity:1"><polygon
       style="fill:#092e20;fill-opacity:1"
       points="465.097,301.017 465.097,301.017 465.082,301.07 "
       id="polygon11" /><path
       style="fill:#092e20;fill-opacity:1"
       d="m 465.097,301.017 -98.25327,-98.75531 -37.31674,14.4933 -10.36301,24.42698 -13.396,10.556 -14.03604,12.94194 172.85252,38.13876 L 330.17442,165.09659 255.39814,92.633369 255.3233,329.46635 202.23998,325.26597 120.3987,317.43595 276.22398,469.83693 C 359.68957,455.81 433.96682,396.61336 460.64182,313.29536 c 0.849,-2.716 3.66618,-9.46836 4.44018,-12.22236 0,-0.018 0.008,-0.041 0.015,-0.056 z"
       id="path13"
       inkscape:connector-curvature="0"
       sodipodi:nodetypes="cccccccccccccccc" /></g><rect
     style="opacity:1;fill:#ffffff;fill-opacity:1"
     id="rect4190"
     width="50.777653"
     height="52.640316"
     x="285.82596"
     y="93.582779"
     ry="0" /><path
     style="fill:#ffffff;fill-opacity:1;fill-rule:evenodd;stroke:none;stroke-width:1px;stroke-linecap:butt;stroke-linejoin:miter;stroke-opacity:1"
     d="m 204.69836,92.413699 -0.73176,78.961861 c -19.10293,-5.37621 -32.76618,-2.60151 -43.04086,-1.75662 -26.92392,6.28057 -44.95775,18.97005 -55.154,37.72559 -6.173614,9.41896 -11.509237,21.10105 -10.797782,53.51904 1.531027,12.70613 2.477433,25.21857 7.440042,33.33954 5.38649,9.25074 9.98783,18.30251 25.09703,27.92799 9.45398,6.47462 21.40529,8.97172 32.24763,13.01149 20.36558,1.80121 40.23315,3.05076 59.82454,0.58488 12.37038,-0.78349 24.82479,-3.71745 36.03857,-6.43272 l 0.002,-236.883428 z m -0.87766,121.363591 0,79.6947 c -8.7539,1.03233 -17.50783,1.15598 -26.26173,-0.14865 -9.18254,-1.82156 -14.78885,-5.8638 -19.84483,-9.94101 -10.67392,-15.65603 -7.67569,-26.99714 -8.31746,-37.2891 1.6603,-10.37517 4.67055,-20.32848 13.71777,-27.19645 16.39123,-10.44551 32.75788,-7.8478 40.70625,-5.11953 z"
     id="path4194"
     inkscape:connector-curvature="0"
     sodipodi:nodetypes="ccccccccccccccccccc" /><path
     style="fill:#ffffff;fill-opacity:1;fill-rule:evenodd;stroke:none;stroke-width:1px;stroke-linecap:butt;stroke-linejoin:miter;stroke-opacity:1"
     d="m 285.72277,171.06026 51.09018,0.0354 -0.0707,137.83083 c -0.55867,14.73283 -1.53909,29.25432 -5.35603,42.35453 -3.91395,16.63167 -11.70303,25.77399 -19.36368,35.1645 -8.97972,8.28822 -18.55724,14.62944 -28.63733,19.3339 l -47.86254,-23.32772 c 8.86381,-3.93581 17.89549,-8.25898 25.13544,-15.44945 11.67487,-12.00205 21.41675,-26.79247 22.42049,-43.1817 0.84376,-11.02261 1.52401,-22.20905 2.09284,-33.50714 z"
     id="path4192"
     inkscape:connector-curvature="0"
     sodipodi:nodetypes="ccccccccccc" /><g
     id="g17" /><g
     id="g19" /><g
     id="g21" /><g
     id="g23" /><g
     id="g25" /><g
     id="g27" /><g
     id="g29" /><g
     id="g31" /><g
     id="g33" /><g
     id="g35" /><g
     id="g37" /><g
     id="g39" /><g
     id="g41" /><g
     id="g43" /><g
     id="g45" /><path
     style="fill:#092e20;fill-rule:evenodd;stroke:none;stroke-width:1px;stroke-linecap:butt;stroke-linejoin:miter;stroke-opacity:1;fill-opacity:1"
     d="m 336.59181,146.26617 134.49294,123.89494 c 1.89222,-14.51518 2.62145,-29.53118 1.67102,-46.64202 L 336.53982,93.704665 Z"
     id="path5379"
     inkscape:connector-curvature="0"
     sodipodi:nodetypes="ccccc" /></svg>