<?xml version="1.0" encoding="UTF-8" standalone="no"?>
<!-- Generator: Adobe Illustrator 19.0.0, SVG Export Plug-In . SVG Version: 6.00 Build 0)  -->

<svg
   xmlns:dc="http://purl.org/dc/elements/1.1/"
   xmlns:cc="http://creativecommons.org/ns#"
   xmlns:rdf="http://www.w3.org/1999/02/22-rdf-syntax-ns#"
   xmlns:svg="http://www.w3.org/2000/svg"
   xmlns="http://www.w3.org/2000/svg"
   xmlns:sodipodi="http://sodipodi.sourceforge.net/DTD/sodipodi-0.dtd"
   xmlns:inkscape="http://www.inkscape.org/namespaces/inkscape"
   version="1.1"
   id="Layer_1"
   x="0px"
   y="0px"
   viewBox="0 0 473.931 473.931"
   style="enable-background:new 0 0 473.931 473.931;"
   xml:space="preserve"
   inkscape:version="0.91 r13725"
   sodipodi:docname="github.svg"><metadata
     id="metadata51"><rdf:RDF><cc:Work
         rdf:about=""><dc:format>image/svg+xml</dc:format><dc:type
           rdf:resource="http://purl.org/dc/dcmitype/StillImage" /><dc:title></dc:title></cc:Work></rdf:RDF></metadata><defs
     id="defs49" /><sodipodi:namedview
     pagecolor="#ffffff"
     bordercolor="#666666"
     borderopacity="1"
     objecttolerance="10"
     gridtolerance="10"
     guidetolerance="10"
     inkscape:pageopacity="0"
     inkscape:pageshadow="2"
     inkscape:window-width="1920"
     inkscape:window-height="1024"
     id="namedview47"
     showgrid="false"
     inkscape:zoom="0.99592557"
     inkscape:cx="391.03113"
     inkscape:cy="156.63821"
     inkscape:window-x="0"
     inkscape:window-y="30"
     inkscape:window-maximized="1"
     inkscape:current-layer="Layer_1" /><circle
     style="fill:#666666"
     cx="236.966"
     cy="236.966"
     r="236.966"
     id="circle3" /><path
     style="fill:#5c5c5c;fill-opacity:1"
     d="M404.518,69.383c92.541,92.549,92.549,242.59,0,335.138c-92.541,92.541-242.593,92.541-335.134,0  L404.518,69.383z"
     id="path5" /><path
     style="fill:#4A86C5;"
     d="M462.646,309.275c0.868-2.713,1.658-5.456,2.432-8.206  C464.307,303.823,463.496,306.562,462.646,309.275z"
     id="path7" /><g
     id="g9"><polygon
       style="fill:#377CA5;"
       points="465.097,301.017 465.097,301.017 465.082,301.07  "
       id="polygon11" /><path
       style="fill:#4d4d4d"
       d="m 465.097,301.017 c 10.95697,-43.04978 8.59464,-80.86533 5.77612,-103.68845 L 348.77009,85.78712 307.517,201.845 287.214,181.542 270.268,198.488 171.032,99.25 l -6.155,-2.346 3.08774,61.67614 4.80026,22.36786 -44.998,44.995 111.71915,78.0821 -42.5255,78.67678 84.53481,86.38198 C 359.68957,456.56307 434.46886,396.36234 462.65,309.279 c 0.849,-2.716 1.658,-5.452 2.432,-8.206 0,-0.018 0.008,-0.041 0.015,-0.056 z"
       id="path13"
       inkscape:connector-curvature="0"
       sodipodi:nodetypes="ccccccccccccccccc" /></g><g
     id="g17" /><g
     id="g19" /><g
     id="g21" /><g
     id="g23" /><g
     id="g25" /><g
     id="g27" /><g
     id="g29" /><g
     id="g31" /><g
     id="g33" /><g
     id="g35" /><g
     id="g37" /><g
     id="g39" /><g
     id="g41" /><g
     id="g43" /><g
     id="g45" /><path
     style="fill:#f2f2f2;fill-rule:evenodd"
     d="m 154.19716,264.57324 c -10.26821,-8.0753 -27.53493,-19.25241 -32.85496,-66.33894 0.0698,-6.36755 -3.91706,-36.0686 17.05312,-58.9331 1.38712,-1.67945 1.96947,-2.34595 1.85147,-6.20568 -1.67782,-7.11728 -6.13155,-22.75507 2.50927,-46.19001 0.88106,-1.28817 0.89963,-3.73693 7.40582,-3.43806 13.44601,2.3239 22.21317,5.36653 44.19157,17.95546 2.55654,1.23546 4.93085,1.96129 10.62606,0.69604 30.38788,-6.0356 47.27351,-6.95871 79.60702,-0.47301 7.01144,0.85167 13.85714,0.33576 18.30539,-1.9672 12.6947,-5.93277 19.37429,-14.23992 42.17293,-15.77391 3.69821,-0.49387 5.81483,1.20581 7.14105,5.54664 5.63874,18.41975 4.55936,31.24984 1.27543,42.5598 0.0582,1.90037 -0.63232,3.61906 0.98915,5.9058 19.35558,22.62151 18.62097,47.85279 17.56883,64.50806 -4.52998,44.77207 -27.48787,58.80932 -32.47951,62.22067 -12.85707,8.90125 -30.41928,15.67675 -56.29171,18.69755 5.67883,5.94774 10.27585,13.81253 12.11386,25.01096 1.35668,8.5291 1.0984,22.17704 0.72878,40.42559 -0.23942,11.81483 -0.80433,24.07377 0.5556,34.21478 -15.52696,4.6326 -32.68094,6.67833 -50.98459,6.89584 -14.47747,-0.3039 -30.26294,-1.83753 -49.42149,-6.53973 2.01026,0.78182 2.21947,-18.08265 1.67457,-45.17241 -28.25546,1.07103 -38.06221,-1.27397 -45.00472,-4.14979 -9.14665,-4.17637 -17.66171,-10.67419 -23.62984,-26.5305 -6.7527,-12.98974 -12.01518,-17.80115 -17.75619,-21.96318 -2.76147,-1.30961 -5.24585,-2.72461 -8.71427,-9.66639 l 10.10523,-2.67635 c 7.18906,0.96563 13.38373,4.00935 18.8638,8.54833 6.20792,6.16071 10.39326,12.05917 15.5517,19.45927 5.19622,5.50168 11.18622,10.67788 23.96238,13.07091 8.29664,0.58819 10.42708,-0.15695 15.23615,-1.08942 8.29162,-2.52511 10.37057,-3.04812 12.1593,-5.21578 3.14215,-7.58832 5.00259,-12.35891 9.674,-24.81928 -34.80964,-5.31935 -43.61724,-12.04387 -54.18509,-18.57345 z"
     id="path4166"
     inkscape:connector-curvature="0"
     sodipodi:nodetypes="ccccccccccccccccccscccccccccccccccc" /></svg>