<?xml version="1.0" encoding="UTF-8" standalone="no"?>
<!-- Generator: Adobe Illustrator 19.0.0, SVG Export Plug-In . SVG Version: 6.00 Build 0)  -->

<svg
   xmlns:dc="http://purl.org/dc/elements/1.1/"
   xmlns:cc="http://creativecommons.org/ns#"
   xmlns:rdf="http://www.w3.org/1999/02/22-rdf-syntax-ns#"
   xmlns:svg="http://www.w3.org/2000/svg"
   xmlns="http://www.w3.org/2000/svg"
   xmlns:sodipodi="http://sodipodi.sourceforge.net/DTD/sodipodi-0.dtd"
   xmlns:inkscape="http://www.inkscape.org/namespaces/inkscape"
   version="1.1"
   id="Layer_1"
   x="0px"
   y="0px"
   viewBox="0 0 473.931 473.931"
   style="enable-background:new 0 0 473.931 473.931;"
   xml:space="preserve"
   inkscape:version="0.91 r13725"
   sodipodi:docname="gmail.svg"><metadata
     id="metadata51"><rdf:RDF><cc:Work
         rdf:about=""><dc:format>image/svg+xml</dc:format><dc:type
           rdf:resource="http://purl.org/dc/dcmitype/StillImage" /><dc:title></dc:title></cc:Work></rdf:RDF></metadata><defs
     id="defs49" /><sodipodi:namedview
     pagecolor="#ffffff"
     bordercolor="#666666"
     borderopacity="1"
     objecttolerance="10"
     gridtolerance="10"
     guidetolerance="10"
     inkscape:pageopacity="0"
     inkscape:pageshadow="2"
     inkscape:window-width="1920"
     inkscape:window-height="1024"
     id="namedview47"
     showgrid="false"
     inkscape:zoom="1.4084514"
     inkscape:cx="260.39943"
     inkscape:cy="175.91572"
     inkscape:window-x="0"
     inkscape:window-y="30"
     inkscape:window-maximized="1"
     inkscape:current-layer="Layer_1" /><circle
     style="fill:#e46051;fill-opacity:1"
     cx="236.966"
     cy="236.966"
     r="236.966"
     id="circle3" /><path
     style="fill:#c33d38;fill-opacity:1"
     d="M404.518,69.383c92.541,92.549,92.549,242.59,0,335.138c-92.541,92.541-242.593,92.541-335.134,0  L404.518,69.383z"
     id="path5" /><path
     style="fill:#4A86C5;"
     d="M462.646,309.275c0.868-2.713,1.658-5.456,2.432-8.206  C464.307,303.823,463.496,306.562,462.646,309.275z"
     id="path7" /><g
     id="g9"><polygon
       style="fill:#377CA5;"
       points="465.097,301.017 465.097,301.017 465.082,301.07  "
       id="polygon11" /><path
       style="fill:#a73835;fill-opacity:1"
       d="M 472.87871,261.3554 360.50599,141.75602 307.517,201.845 l -20.303,-20.303 -16.946,16.946 -40.30603,-44.56803 -30.64999,8.304 -7.55001,8.26001 -18.99697,10.46402 -44.998,44.995 43.943,43.943 -58.78674,59.76699 130.89176,144.84201 c 104.12693,-3.76762 180.86396,-69.84891 212.55941,-148.14645 9.90248,-19.23946 15.62385,-58.80404 16.50428,-64.99315 z"
       id="path13"
       inkscape:connector-curvature="0"
       sodipodi:nodetypes="ccccccccccccccc" /></g><g
     id="g17" /><g
     id="g19" /><g
     id="g21" /><g
     id="g23" /><g
     id="g25" /><g
     id="g27" /><g
     id="g29" /><g
     id="g31" /><g
     id="g33" /><g
     id="g35" /><g
     id="g37" /><g
     id="g39" /><g
     id="g41" /><g
     id="g43" /><g
     id="g45" /><g
     transform="matrix(0.5,0,0,0.50004487,110,108.40176)"
     id="g4181"><g
       id="g3"><polygon
         id="polygon5"
         points="33.379,129.16 256,253.802 484.973,122.808 452.288,451.017 59.712,451.017 "
         style="fill:#f2f2f2" /><polygon
         id="polygon7"
         points="473.886,60.983 256,265.659 38.114,60.983 256,60.983 "
         style="fill:#f2f2f2" /></g><path
       inkscape:connector-curvature="0"
       id="path9"
       d="m 59.712,155.493 0,295.524 -35.573,0 C 10.812,451.017 0,440.206 0,426.878 l 0,-314.911 39,1.063 20.712,42.463 z"
       style="fill:#f14336" /><path
       inkscape:connector-curvature="0"
       id="path11"
       d="m 512,111.967 0,314.912 c 0,13.327 -10.812,24.139 -24.152,24.139 l -35.56,0 0,-295.525 19.692,-46.525 40.02,2.999 z"
       style="fill:#d32e2a" /><path
       inkscape:connector-curvature="0"
       id="path11-6"
       d="m -0.12106717,112.15658 0,314.91199 c 0,13.32701 10.81200017,24.13902 24.15200017,24.13902 l 35.56,0 0,-295.52502 -19.692,-46.52499 -40.02000017,2.999 z"
       style="fill:#d32e2a" /><path
       inkscape:connector-curvature="0"
       id="path13-3"
       d="m 512,85.122 0,26.845 -59.712,43.526 L 256,298.561 59.712,155.493 0,111.967 0,85.122 C 0,71.795 10.812,60.983 24.139,60.983 l 13.975,0 L 256,219.792 473.886,60.983 l 13.962,0 c 13.34,0 24.152,10.811 24.152,24.139 z"
       style="fill:#f14336" /><path
       sodipodi:nodetypes="cccc"
       inkscape:connector-curvature="0"
       id="path4179"
       d="m 256.77729,298.44765 194.73283,-142.35008 0,293.72638 z"
       style="fill:#e6e6e6;fill-opacity:1;fill-rule:evenodd;stroke:#e6e6e6;stroke-width:1px;stroke-linecap:butt;stroke-linejoin:miter;stroke-opacity:1" /></g></svg>