<?xml version="1.0" encoding="UTF-8" standalone="no"?>
<!-- Created with Inkscape (http://www.inkscape.org/) -->

<svg
   xmlns:dc="http://purl.org/dc/elements/1.1/"
   xmlns:cc="http://creativecommons.org/ns#"
   xmlns:rdf="http://www.w3.org/1999/02/22-rdf-syntax-ns#"
   xmlns:svg="http://www.w3.org/2000/svg"
   xmlns="http://www.w3.org/2000/svg"
   xmlns:sodipodi="http://sodipodi.sourceforge.net/DTD/sodipodi-0.dtd"
   xmlns:inkscape="http://www.inkscape.org/namespaces/inkscape"
   width="473.931mm"
   height="473.931mm"
   viewBox="0 0 1679.2831 1679.2831"
   id="svg4199"
   version="1.1"
   inkscape:version="0.91 r13725"
   sodipodi:docname="html_transparent.svg">
  <defs
     id="defs4201" />
  <sodipodi:namedview
     id="base"
     pagecolor="#ffffff"
     bordercolor="#666666"
     borderopacity="1.0"
     inkscape:pageopacity="0.0"
     inkscape:pageshadow="2"
     inkscape:zoom="0.35"
     inkscape:cx="301.37199"
     inkscape:cy="908.71197"
     inkscape:document-units="px"
     inkscape:current-layer="layer1"
     showgrid="false"
     inkscape:window-width="1920"
     inkscape:window-height="1024"
     inkscape:window-x="0"
     inkscape:window-y="30"
     inkscape:window-maximized="1" />
  <metadata
     id="metadata4204">
    <rdf:RDF>
      <cc:Work
         rdf:about="">
        <dc:format>image/svg+xml</dc:format>
        <dc:type
           rdf:resource="http://purl.org/dc/dcmitype/StillImage" />
        <dc:title></dc:title>
      </cc:Work>
    </rdf:RDF>
  </metadata>
  <g
     inkscape:label="Capa 1"
     inkscape:groupmode="layer"
     id="layer1"
     transform="translate(0,626.92087)">
    <path
       style="opacity:1;fill:#cccccc;fill-opacity:0.78431373;stroke:none;stroke-width:0;stroke-miterlimit:4;stroke-dasharray:none"
       d="M 856.52734 8.0976562 A 831.42859 834.28571 0 0 0 690.99414 20.716797 A 831.42859 834.28571 0 0 0 12.570312 954.4707 A 831.42859 834.28571 0 0 0 914.70117 1672.7207 A 831.42859 834.28571 0 0 0 1666.668 797.51758 L 1648.4297 662.84766 A 831.42859 834.28571 0 0 0 856.52734 8.0976562 z M 565.9707 289.2832 L 566.23242 341.54297 L 612.09375 341.00586 L 612.88086 289.55273 L 662.41016 289.2832 L 662.93359 446.87305 L 611.04492 446.60352 L 611.83203 394.88281 L 567.01953 394.88281 L 567.01953 446.60352 L 514.60547 446.60352 L 514.60547 290.36133 L 565.9707 289.2832 z M 683.375 289.2832 L 825.93945 289.55273 L 825.9375 342.89062 L 780.86328 342.89062 L 781.38672 447.14258 L 730.54688 447.14258 L 730.02344 343.16016 L 684.16211 343.42969 L 683.375 289.2832 z M 899.83984 290.36133 L 933.64648 345.04492 L 966.4043 290.36133 L 1019.8652 290.36133 L 1019.0801 446.87305 L 968.50195 447.14258 L 968.50195 370.09766 L 932.86133 426.13086 L 898.26758 371.17578 L 896.69531 446.87305 L 848.47656 447.14258 L 847.95117 290.89844 L 899.83984 290.36133 z M 1043.9766 290.36133 L 1094.293 290.63086 L 1094.5547 394.88281 L 1166.0977 395.15234 L 1166.0977 446.33398 L 1042.9277 447.68164 L 1043.9766 290.36133 z M 440 517.40625 L 1240 517.78711 L 1167.3633 1356.4941 L 839.93555 1449.2832 L 512.63672 1356.2441 L 440 517.40625 z "
       transform="translate(0,-626.92087)"
       id="path4363" />
    <path
       style="fill:#cccccc;fill-opacity:0.78431374;fill-rule:evenodd;stroke:none;stroke-width:1px;stroke-linecap:butt;stroke-linejoin:miter;stroke-opacity:1"
       d="m 1089.051,63.476848 -7.5999,101.558232 -242.4094,0.26953 0.52428,-103.174555 z"
       id="path4575"
       inkscape:connector-curvature="0"
       sodipodi:nodetypes="ccccc" />
    <path
       style="fill:#cccccc;fill-opacity:0.78431374;fill-rule:evenodd;stroke:none;stroke-width:1px;stroke-linecap:butt;stroke-linejoin:miter;stroke-opacity:1"
       d="m 839.56582,270.09536 -0.52402,102.097 124.21846,0.26953 -11.79288,134.15384 -112.71395,30.44055 0.81301,106.40716 205.19636,-57.91783 27.2546,-315.45011 z"
       id="path4577"
       inkscape:connector-curvature="0"
       sodipodi:nodetypes="ccccccccc" />
    <path
       style="fill:#cccccc;fill-opacity:0.78431374;fill-rule:evenodd;stroke:none;stroke-width:1px;stroke-linecap:butt;stroke-linejoin:miter;stroke-opacity:1"
       d="m 839.56582,165.57387 0,-103.443953 -251.5817,0 28.36656,309.831333 223.48814,0.43512 -0.12721,-102.1432 -132.48826,0.38096 -9.17225,-105.06026 z"
       id="path4579"
       inkscape:connector-curvature="0"
       sodipodi:nodetypes="ccccccccc" />
    <path
       style="fill:#cccccc;fill-opacity:0.78431374;fill-rule:evenodd;stroke:none;stroke-width:1px;stroke-linecap:butt;stroke-linejoin:miter;stroke-opacity:1"
       d="m 720.32659,425.80002 -98.79824,0.53877 13.62733,159.20668 204.41014,58.18723 0,-106.67656 -112.42555,-30.70991 z"
       id="path4581"
       inkscape:connector-curvature="0"
       sodipodi:nodetypes="ccccccc" />
  </g>
</svg>
