<?xml version="1.0" encoding="UTF-8" standalone="no"?>
<!-- Created with Inkscape (http://www.inkscape.org/) -->

<svg
   xmlns:dc="http://purl.org/dc/elements/1.1/"
   xmlns:cc="http://creativecommons.org/ns#"
   xmlns:rdf="http://www.w3.org/1999/02/22-rdf-syntax-ns#"
   xmlns:svg="http://www.w3.org/2000/svg"
   xmlns="http://www.w3.org/2000/svg"
   xmlns:sodipodi="http://sodipodi.sourceforge.net/DTD/sodipodi-0.dtd"
   xmlns:inkscape="http://www.inkscape.org/namespaces/inkscape"
   width="473.931mm"
   height="473.931mm"
   viewBox="0 0 1679.2831 1679.2831"
   id="svg4199"
   version="1.1"
   inkscape:version="0.91 r13725"
   sodipodi:docname="inkscape_transparent.svg">
  <defs
     id="defs4201" />
  <sodipodi:namedview
     id="base"
     pagecolor="#ffffff"
     bordercolor="#666666"
     borderopacity="1.0"
     inkscape:pageopacity="0.0"
     inkscape:pageshadow="2"
     inkscape:zoom="0.35"
     inkscape:cx="265.63783"
     inkscape:cy="908.71197"
     inkscape:document-units="px"
     inkscape:current-layer="layer1"
     showgrid="false"
     inkscape:window-width="1920"
     inkscape:window-height="1024"
     inkscape:window-x="0"
     inkscape:window-y="30"
     inkscape:window-maximized="1" />
  <metadata
     id="metadata4204">
    <rdf:RDF>
      <cc:Work
         rdf:about="">
        <dc:format>image/svg+xml</dc:format>
        <dc:type
           rdf:resource="http://purl.org/dc/dcmitype/StillImage" />
        <dc:title></dc:title>
      </cc:Work>
    </rdf:RDF>
  </metadata>
  <g
     inkscape:label="Capa 1"
     inkscape:groupmode="layer"
     id="layer1"
     transform="translate(0,626.92087)">
    <path
       style="opacity:1;fill:#cccccc;fill-opacity:0.78431373;stroke:none;stroke-width:0;stroke-miterlimit:4;stroke-dasharray:none"
       d="M 840.71484 -0.71679688 A 835.71429 838.57141 0 0 0 5 837.85547 A 835.71429 838.57141 0 0 0 840.71484 1676.4258 A 835.71429 838.57141 0 0 0 1676.4277 837.85547 A 835.71429 838.57141 0 0 0 840.71484 -0.71679688 z M 840.48438 369.28711 C 842.3157 369.27205 844.15285 369.2981 845.99219 369.36719 C 868.88178 370.22695 892.09862 377.70731 908.29102 394.38672 L 1285.875 775.57617 C 1345.5506 836.7769 1314.6451 909.54624 1285.875 919.51562 C 1231.7257 944.95245 1207.2815 959.43032 1096.6328 984.71875 C 1020.2162 1001.8 1032.0133 1018.8777 1040.4102 1035.959 C 1071.4303 1054.6333 1098.0941 1067.6517 1116.3164 1088.9336 C 1122.2864 1094.921 1119.6142 1096.2492 1114.1738 1103.9434 C 1095.9051 1129.7809 1045.4182 1160.392 1000.0781 1176.252 C 985.48834 1182.4514 977.39314 1183.138 948.46289 1201.5117 C 940.04418 1211.4301 937.5764 1220.9651 949.84375 1229.5664 L 972.93555 1240.4707 C 981.26604 1248.0105 986.89751 1262.0325 971.2207 1268.2852 C 960.34027 1276.8583 913.32159 1297.9685 887.86719 1306.7324 C 858.76303 1309.2267 829.32277 1312.5477 811.63867 1302.1152 C 796.06434 1298.087 789.95662 1290.839 785.95508 1282.8809 C 787.04969 1276.5841 787.27444 1270.2929 789.52148 1263.9961 C 783.09498 1235.71 771.97703 1238.2414 758.50195 1230.5586 L 697.0918 1223.9551 C 651.27591 1211.6509 662.19708 1190.3014 672.79102 1179.3848 L 701.95703 1146.7891 C 724.55815 1114.4325 693.73428 1107.0865 670.27148 1096.291 C 610.2678 1073.0005 541.55944 1057.9562 498.06641 1031.5918 C 461.73674 1011.3551 489.8859 1002.613 502.26758 991.06055 L 562.86328 961.59766 C 580.97125 951.6076 586.35928 943.44587 559.20898 929.50391 L 389.75781 874.95703 C 379.39155 872.22092 369.97064 867.1226 360.90039 857.78516 C 356.47115 834.97139 369.17003 806.35862 381.57031 790.17188 L 774.93945 393.39453 C 786.87496 379.05577 813.01444 369.51303 840.48438 369.28711 z M 838.125 417.02344 C 837.48197 417.01575 836.84354 417.02368 836.20898 417.04883 L 836.20898 417.05078 C 827.32504 417.39193 819.3103 420.66411 813.22461 424.54883 L 719.25195 491.01758 C 680.73777 526.34974 640.66791 560.45944 618.46289 608.57227 L 615.53906 668.59961 L 739.21484 657.19336 L 783.52148 556.99414 L 815.16406 672.5625 L 904.75391 613.53906 L 965.13477 641.31055 L 973.40625 560.46484 L 1075.6621 610.55859 L 1076.1445 600.63672 C 1071.5965 591.00077 1070.3828 582.29101 1052.293 568.89258 L 859.4707 423.55664 C 852.88845 419.36531 846.31378 417.46598 840.06641 417.09375 C 839.41563 417.05465 838.76803 417.03112 838.125 417.02344 z M 671.29102 952.08008 C 676.05591 959.71219 680.69754 966.48693 691.00586 976.62891 C 741.67097 998.57018 793.47644 1009.3216 846.08789 1012.0957 C 845.9222 1006.9887 845.8124 1002.2413 844.38477 988.7793 C 799.53506 982.58089 748.23302 972.66377 671.29102 952.08008 z M 1249.0781 1055.9629 C 1260.8276 1055.9121 1268.9909 1056.5726 1275.4238 1057.6973 C 1282.4661 1059.7512 1289.3302 1061.8877 1301.2285 1078.2109 C 1303.0356 1092.4445 1299.4229 1096.4238 1296.9297 1102.5215 C 1291.4979 1113.0963 1281.2472 1114.4695 1270.7207 1115.3125 C 1244.8409 1115.8964 1229.1747 1118.5264 1181.2051 1103.8828 C 1164.7366 1099.838 1157.2775 1098.2119 1170.1543 1077.8359 C 1181.3057 1064.2727 1202.3661 1059.4659 1223.6543 1056.875 C 1233.6873 1056.2798 1242.0284 1055.9934 1249.0781 1055.9629 z M 606.06055 1128.5508 C 615.80467 1128.4433 626.37283 1130.0012 628.23828 1130.334 C 635.65362 1131.6566 647.92186 1138.334 647.92188 1138.334 C 677.84639 1148.8996 663.986 1160.135 652.17188 1169.4121 L 621.10938 1192.7656 C 600.88482 1205.9447 580.3697 1200.0308 575.61523 1198.498 C 554.11897 1189.5205 554.55753 1174.4841 562.77539 1159.584 C 570.86366 1147.4049 578.73332 1142.2013 589.30273 1133.1816 C 591.40262 1129.7248 598.48178 1128.6344 606.06055 1128.5508 z M 1152.1191 1132.4023 C 1157.1496 1132.2866 1163.7581 1134.3771 1172.5547 1140.3164 C 1181.2598 1146.1238 1185.4352 1150.0531 1194.4648 1164.8711 C 1202.5159 1180.6901 1196.6205 1185.9089 1181.8047 1191.9043 C 1165.3734 1196.7549 1151.5663 1199.4977 1136.5234 1177.5195 C 1132.0039 1167.0494 1130.7607 1156.249 1135.3066 1147.7578 C 1137.6197 1143.5958 1141.0522 1132.6569 1152.1191 1132.4023 z "
       transform="translate(0,-626.92087)"
       id="path4148" />
  </g>
</svg>
