<?xml version="1.0" encoding="UTF-8" standalone="no"?>
<!-- Created with Inkscape (http://www.inkscape.org/) -->

<svg
   xmlns:dc="http://purl.org/dc/elements/1.1/"
   xmlns:cc="http://creativecommons.org/ns#"
   xmlns:rdf="http://www.w3.org/1999/02/22-rdf-syntax-ns#"
   xmlns:svg="http://www.w3.org/2000/svg"
   xmlns="http://www.w3.org/2000/svg"
   xmlns:sodipodi="http://sodipodi.sourceforge.net/DTD/sodipodi-0.dtd"
   xmlns:inkscape="http://www.inkscape.org/namespaces/inkscape"
   width="473.931mm"
   height="473.931mm"
   viewBox="0 0 1679.2831 1679.2831"
   id="svg4199"
   version="1.1"
   inkscape:version="0.91 r13725"
   sodipodi:docname="inventor_transparent.svg">
  <defs
     id="defs4201" />
  <sodipodi:namedview
     id="base"
     pagecolor="#ffffff"
     bordercolor="#666666"
     borderopacity="1.0"
     inkscape:pageopacity="0.0"
     inkscape:pageshadow="2"
     inkscape:zoom="0.35"
     inkscape:cx="301.37199"
     inkscape:cy="908.71197"
     inkscape:document-units="px"
     inkscape:current-layer="layer1"
     showgrid="false"
     inkscape:window-width="1920"
     inkscape:window-height="1024"
     inkscape:window-x="0"
     inkscape:window-y="30"
     inkscape:window-maximized="1" />
  <metadata
     id="metadata4204">
    <rdf:RDF>
      <cc:Work
         rdf:about="">
        <dc:format>image/svg+xml</dc:format>
        <dc:type
           rdf:resource="http://purl.org/dc/dcmitype/StillImage" />
        <dc:title></dc:title>
      </cc:Work>
    </rdf:RDF>
  </metadata>
  <g
     inkscape:label="Capa 1"
     inkscape:groupmode="layer"
     id="layer1"
     transform="translate(0,626.92087)">
    <path
       style="opacity:1;fill:#cccccc;fill-opacity:0.78431373;stroke:none;stroke-width:0;stroke-miterlimit:4;stroke-dasharray:none"
       d="M 853.59961 5.2402344 A 828.57141 828.57141 0 0 0 688.63867 17.771484 A 828.57141 828.57141 0 0 0 12.544922 945.13086 A 828.57141 828.57141 0 0 0 911.57617 1658.4609 A 828.57141 828.57141 0 0 0 1660.957 789.25195 L 1642.7832 655.50391 A 828.57141 828.57141 0 0 0 853.59961 5.2402344 z M 1088.7148 324.2832 L 1088.707 325.36914 C 1088.709 325.36866 1088.7109 325.36767 1088.7129 325.36719 C 1088.7108 325.3697 1088.7091 325.37249 1088.707 325.375 L 1087.5879 464.75391 L 1087.5859 464.75391 L 1040.2109 542.3125 C 989.79469 539.21481 971.46133 553.0646 964.13086 564.84766 C 962.84243 567.25655 961.57296 569.97354 960.32422 573.07812 C 958.97038 577.23595 958.70155 580.07639 957.77539 580.02539 C 957.76814 580.047 957.76116 580.06626 957.75391 580.08789 C 957.3952 589.3856 957.06316 598.74831 956.74219 608.13672 L 956.74219 1137.8262 L 956.66406 1137.6152 C 958.30853 1152.6906 968.99857 1166.8094 987.37891 1176.5254 C 1005.5668 1184.644 1030.137 1186.5238 1063.8984 1180.1309 L 1066.0449 1182.4609 L 1066.4199 1182.4355 L 1085.625 1203.7188 L 1098.8652 1218.0957 C 1098.8304 1218.1396 1098.7678 1218.1855 1098.7188 1218.2305 L 1099.0664 1218.6172 L 1100 1362.8145 C 1053.4545 1353.9979 1007.8134 1347.9145 962.95508 1344.1973 C 829.8882 1334.0021 703.57755 1345.5348 580.0332 1364.2832 L 581.46094 1218.1191 C 581.34949 1218.1111 581.23841 1218.1038 581.12695 1218.0957 L 581.46289 1217.7383 L 581.46484 1217.625 L 585.60742 1213.3418 L 613.83789 1183.3848 C 614.1074 1183.3718 614.34917 1183.3549 614.61719 1183.3418 L 615.06055 1182.8848 L 626.48633 1182.668 C 693.0649 1178.4065 706.88919 1168.2844 709.35352 1163.8574 C 709.4731 1163.4958 709.59849 1163.1415 709.71484 1162.7754 C 709.08458 1160.9002 710.55171 1161.7049 709.35352 1163.8574 C 708.94796 1165.0838 708.52804 1166.2893 708.08594 1167.4648 C 711.4793 1163.3537 713.06283 1157.1629 712.83594 1146.7031 C 717.96856 969.06909 725.4439 790.75326 716.02539 582.33398 C 716.40905 560.87645 707.57366 541.89053 674.08398 539.04102 L 622.37695 540.38867 L 581.0957 469.63672 L 581.08789 468.57031 L 580 468.55078 L 580.0332 327.41016 L 580.03125 327.40625 C 580.05931 327.41109 580.08726 327.4154 580.11523 327.41992 C 727.80318 345.09385 879.13498 365.44354 1042.5273 335.21484 C 1057.9446 332.07208 1073.3408 328.44999 1088.7148 324.2832 z "
       transform="translate(0,-626.92087)"
       id="path4234" />
  </g>
</svg>
