<?xml version="1.0" encoding="UTF-8" standalone="no"?>
<!-- Generator: Adobe Illustrator 19.0.0, SVG Export Plug-In . SVG Version: 6.00 Build 0)  -->

<svg
   xmlns:dc="http://purl.org/dc/elements/1.1/"
   xmlns:cc="http://creativecommons.org/ns#"
   xmlns:rdf="http://www.w3.org/1999/02/22-rdf-syntax-ns#"
   xmlns:svg="http://www.w3.org/2000/svg"
   xmlns="http://www.w3.org/2000/svg"
   xmlns:sodipodi="http://sodipodi.sourceforge.net/DTD/sodipodi-0.dtd"
   xmlns:inkscape="http://www.inkscape.org/namespaces/inkscape"
   version="1.1"
   id="Layer_1"
   x="0px"
   y="0px"
   viewBox="0 0 473.931 473.931"
   xml:space="preserve"
   inkscape:version="0.91 r13725"
   sodipodi:docname="java_material.svg"
   width="473.931"
   height="473.931"><metadata
     id="metadata51"><rdf:RDF><cc:Work
         rdf:about=""><dc:format>image/svg+xml</dc:format><dc:type
           rdf:resource="http://purl.org/dc/dcmitype/StillImage" /><dc:title></dc:title></cc:Work></rdf:RDF></metadata><defs
     id="defs49" /><sodipodi:namedview
     pagecolor="#ffffff"
     bordercolor="#666666"
     borderopacity="1"
     objecttolerance="10"
     gridtolerance="10"
     guidetolerance="10"
     inkscape:pageopacity="0"
     inkscape:pageshadow="2"
     inkscape:window-width="1920"
     inkscape:window-height="1024"
     id="namedview47"
     showgrid="false"
     inkscape:zoom="0.49796277"
     inkscape:cx="305.67706"
     inkscape:cy="105.57262"
     inkscape:window-x="0"
     inkscape:window-y="30"
     inkscape:window-maximized="1"
     inkscape:current-layer="Layer_1" /><ellipse
     style="opacity:1;fill:#f2f2f2;fill-opacity:1;stroke:none"
     id="path4747"
     ry="236.58896"
     rx="236.08693"
     cy="236.58894"
     cx="237.09099" /><path
     style="fill:#e6e6e6;fill-opacity:1"
     d="m 404.518,69.383 c 90.53282,96.56536 92.549,242.59 0,335.138 -92.541,92.541 -240.58482,89.02668 -333.376841,0.75307 z"
     id="path5"
     inkscape:connector-curvature="0"
     sodipodi:nodetypes="cscc" /><path
     style="fill:#4a86c5"
     d="m 462.646,309.275 c 0.868,-2.713 1.658,-5.456 2.432,-8.206 -0.771,2.754 -1.582,5.493 -2.432,8.206 z"
     id="path7"
     inkscape:connector-curvature="0" /><g
     id="g9"
     style="fill:#bebebe;fill-opacity:1"><polygon
       style="fill:#bebebe;fill-opacity:1"
       points="465.097,301.017 465.097,301.017 465.082,301.07 "
       id="polygon11" /><path
       style="fill:#bebebe;fill-opacity:1"
       d="m 453.29893,332.89689 -102.66821,-88.32861 -4.61294,39.60851 -39.73145,28.13685 101.33465,88.62623 -2.48883,2.92856 -63.34201,-54.63697 -5.50087,13.45014 -99.96886,16.11774 -121.25372,-8.89934 78.59458,98.38546 0.002,1.24526 c 40.92925,5.88138 72.60041,2.50468 101.56633,-3.57726 122.18921,-30.5853 156.99595,-133.41436 158.06933,-133.05657 z"
       id="path13"
       inkscape:connector-curvature="0"
       sodipodi:nodetypes="cccccccccccccc" /></g><g
     id="g17" /><g
     id="g19" /><g
     id="g21" /><g
     id="g23" /><g
     id="g25" /><g
     id="g27" /><g
     id="g29" /><g
     id="g31" /><g
     id="g33" /><g
     id="g35" /><g
     id="g37" /><g
     id="g39" /><g
     id="g41" /><g
     id="g43" /><g
     id="g45" /><path
     d="m 236.33169,122.85508 c -15.576,11.21195 -33.22984,23.92042 -42.68839,44.94509 -16.42924,36.67865 33.61888,76.68967 35.7575,78.37508 0.49735,0.39251 1.09196,0.58707 1.68547,0.58707 0.62998,0 1.26107,-0.22058 1.7739,-0.65946 0.9936,-0.85063 1.27543,-2.29511 0.67861,-3.4715 -0.18126,-0.35745 -18.14567,-36.07009 -17.47811,-61.69176 0.23652,-8.92251 12.43826,-19.04516 25.35619,-29.7628 11.83148,-9.81612 25.24234,-20.9421 33.08947,-33.95711 17.22611,-28.648618 -1.91978,-56.818763 -2.11541,-57.099288 -0.7604,-1.09269 -2.16404,-1.489724 -3.36432,-0.950165 -1.19917,0.540689 -1.86342,1.868658 -1.58932,3.179661 0.0387,0.185508 3.7622,18.814408 -6.59822,38.006622 -4.2695,7.93049 -13.64738,14.68232 -24.50737,22.49856 z"
     id="XMLID_8_"
     inkscape:connector-curvature="0"
     style="fill:#f14336;fill-opacity:1" /><path
     d="m 301.95471,135.48889 c 1.0986,-0.84723 1.42133,-2.39238 0.75598,-3.62534 -0.66535,-1.23295 -2.1143,-1.77703 -3.40079,-1.27706 -2.64592,1.02934 -64.79631,25.547 -64.79631,55.17294 0,20.42064 8.52353,31.20954 14.74708,39.088 2.44145,3.08917 4.54913,5.75755 5.24321,8.03568 1.95515,6.56519 -2.67686,18.43095 -4.62428,22.44879 -0.56146,1.15604 -0.28625,2.55527 0.66866,3.39911 0.51615,0.45585 1.1605,0.6866 1.80595,0.6866 0.5493,0 1.10081,-0.16741 1.57716,-0.50675 1.06876,-0.76126 26.11658,-18.88567 21.62382,-40.72251 -1.67331,-8.29924 -5.65877,-14.36447 -9.17561,-19.71593 -5.44768,-8.2902 -9.3823,-14.27963 -3.41295,-25.34114 6.9961,-12.89963 38.66867,-37.39693 38.98808,-37.64239 z"
     id="XMLID_9_"
     inkscape:connector-curvature="0"
     style="fill:#f14336;fill-opacity:1" /><path
     d="m 140.1767,259.8893 c -1.06544,3.26337 -0.56256,6.50411 1.45338,9.36931 6.73748,9.57179 30.6016,14.84408 67.20018,14.84408 0.002,0 0.003,0 0.004,0 4.95917,0 10.19464,-0.0995 15.55722,-0.29636 58.51418,-2.14466 80.21757,-20.80071 81.11281,-21.59364 0.97592,-0.8642 1.23675,-2.30416 0.62998,-3.46924 -0.60677,-1.16395 -1.91536,-1.74876 -3.16538,-1.39697 -20.60701,5.75868 -59.0889,7.80267 -85.7802,7.80267 -29.86662,0 -45.07679,-2.20122 -48.80031,-3.82668 1.91094,-2.68535 13.696,-7.48029 28.29941,-10.42015 1.3959,-0.28052 2.35524,-1.59944 2.21709,-3.04845 -0.13816,-1.449 -1.32738,-2.55413 -2.74981,-2.55413 -8.56111,0.001 -51.49156,0.70471 -55.97879,14.58956 z"
     id="XMLID_10_"
     inkscape:connector-curvature="0"
     style="fill:#4a86c5;fill-opacity:1" /><path
     d="m 335.977,240.6756 c -12.06911,0 -23.51376,6.18965 -23.99564,6.45321 -1.11628,0.61195 -1.68216,1.92182 -1.37601,3.17966 0.30725,1.25671 1.41137,2.14013 2.67797,2.14126 0.25641,0.001 25.74412,0.21379 28.05294,15.11782 2.04468,12.85777 -24.11611,33.69128 -34.36933,40.63428 -1.10744,0.74995 -1.53737,2.20008 -1.02344,3.45226 0.43656,1.06668 1.45227,1.73406 2.54645,1.73406 0.1912,0 0.38462,-0.0204 0.57693,-0.0634 2.43371,-0.53164 59.52215,-13.40638 53.48649,-47.4257 -3.68263,-20.84821 -16.48561,-25.2235 -26.57636,-25.2235 z"
     id="XMLID_11_"
     inkscape:connector-curvature="0"
     style="fill:#4a86c5;fill-opacity:1" /><path
     d="m 296.82645,304.0392 c 0.19894,-1.09043 -0.24426,-2.19896 -1.13065,-2.83466 l -13.68827,-9.81272 c -0.66756,-0.47848 -1.51085,-0.62892 -2.29446,-0.41627 -0.14258,0.0385 -14.45751,3.88889 -35.24025,6.25073 -8.24833,0.94678 -17.48695,1.44674 -26.71893,1.44674 -20.77722,0 -34.3627,-2.49871 -36.34107,-4.33117 -0.26193,-0.51467 -0.17904,-0.74882 -0.13262,-0.8789 0.3592,-1.02369 2.28561,-2.23968 3.52789,-2.72041 1.37159,-0.5192 2.11099,-2.04399 1.68437,-3.47603 -0.42551,-1.43203 -1.86784,-2.27587 -3.29137,-1.92521 -13.73138,3.39118 -20.44565,8.13409 -19.95714,14.09525 0.86761,10.56833 24.7881,15.99332 45.01049,17.42875 2.90786,0.20361 6.05334,0.30767 9.34582,0.30767 0.002,0 0.003,0 0.006,0 33.62661,0 76.73499,-10.79795 77.16603,-10.90767 1.05218,-0.26582 1.85458,-1.13568 2.05463,-2.2261 z"
     id="XMLID_12_"
     inkscape:connector-curvature="0"
     style="fill:#4a86c5;fill-opacity:1" /><path
     d="m 193.62672,326.7244 c 1.0367,-0.69113 1.49648,-2.00214 1.12844,-3.2102 -0.36694,-1.20807 -1.47106,-2.00101 -2.71113,-1.98517 -1.84021,0.0498 -18.0064,0.79633 -19.13816,11.33072 -0.34262,3.14799 0.53825,6.02337 2.6194,8.54697 5.80466,7.04027 21.4724,11.22439 47.89181,12.7933 3.12559,0.19116 6.29981,0.28731 9.43756,0.28731 33.58793,0 56.20867,-10.76289 57.15585,-11.221 0.91845,-0.44455 1.52412,-1.36756 1.57827,-2.40596 0.0542,-1.03726 -0.45204,-2.02249 -1.31854,-2.56431 l -17.29905,-10.80814 c -0.60014,-0.37441 -1.31854,-0.49883 -2.00379,-0.35518 -0.10941,0.0238 -11.09319,2.35506 -27.66942,4.65921 -3.13665,0.43549 -7.06463,0.65719 -11.67344,0.65719 -16.55855,0 -34.9761,-2.76905 -38.50842,-4.58115 -0.0508,-0.34048 0.0144,-0.77031 0.51062,-1.14359 z"
     id="XMLID_13_"
     inkscape:connector-curvature="0"
     style="fill:#4a86c5;fill-opacity:1" /><path
     d="m 217.20127,386.98412 c 76.93505,-0.0667 118.22754,-14.06924 126.18188,-22.88089 2.81612,-3.11858 3.12006,-6.06975 2.88023,-7.99723 -0.5913,-4.74404 -4.81217,-7.6477 -5.29184,-7.96329 -1.15497,-0.76013 -2.7045,-0.56105 -3.60526,0.50223 -0.89856,1.06441 -0.91956,2.61748 -0.0177,3.67963 0.4852,0.6391 0.76593,1.70804 -0.65319,3.16156 -3.17974,3.0394 -35.25351,12.26619 -88.65601,15.0375 -7.31551,0.39025 -14.98802,0.58707 -22.8042,0.5882 -47.81446,0 -82.80714,-6.70206 -87.40047,-10.60905 1.77168,-2.60277 14.14805,-6.76314 27.31133,-9.1148 1.48322,-0.26469 2.48566,-1.69559 2.25578,-3.21812 -0.22989,-1.52253 -1.60148,-2.5711 -3.10017,-2.37089 -0.37136,0.0509 -1.63022,0.13008 -3.09023,0.22057 -21.71887,1.35738 -46.81753,4.38321 -48.12723,15.83496 -0.39788,3.49073 0.61562,6.65795 3.01286,9.41569 5.86545,6.74505 22.72573,15.7128 101.1009,15.7128 0.002,0.001 0.002,0.001 0.003,0.001 z"
     id="XMLID_14_"
     inkscape:connector-curvature="0"
     style="fill:#4a86c5;fill-opacity:1" /><path
     d="m 358.49495,366.5861 c -1.08754,-0.51467 -2.37182,-0.25451 -3.18416,0.64136 -0.11384,0.12443 -11.68007,12.50373 -46.45834,19.7725 -13.3147,2.73059 -38.30726,4.11512 -74.2836,4.11512 -36.04375,0 -70.34014,-1.45127 -70.68276,-1.46597 -1.43238,-0.0713 -2.65808,0.99428 -2.8526,2.43762 -0.19562,1.44335 0.71288,2.80186 2.09662,3.13894 0.35699,0.0871 36.30017,8.70533 85.44532,8.70533 23.57124,0 46.50807,-1.96028 68.17499,-5.82655 40.39947,-7.24841 43.22775,-27.75049 43.32833,-28.61921 0.14036,-1.21486 -0.49846,-2.38446 -1.5838,-2.89914 z"
     id="XMLID_15_"
     inkscape:connector-curvature="0"
     style="fill:#4a86c5;fill-opacity:1" /></svg>