<?xml version="1.0" encoding="UTF-8" standalone="no"?>
<!-- Created with Inkscape (http://www.inkscape.org/) -->

<svg
   xmlns:dc="http://purl.org/dc/elements/1.1/"
   xmlns:cc="http://creativecommons.org/ns#"
   xmlns:rdf="http://www.w3.org/1999/02/22-rdf-syntax-ns#"
   xmlns:svg="http://www.w3.org/2000/svg"
   xmlns="http://www.w3.org/2000/svg"
   xmlns:sodipodi="http://sodipodi.sourceforge.net/DTD/sodipodi-0.dtd"
   xmlns:inkscape="http://www.inkscape.org/namespaces/inkscape"
   width="473.931mm"
   height="473.931mm"
   viewBox="0 0 1679.2831 1679.2831"
   id="svg4199"
   version="1.1"
   inkscape:version="0.91 r13725"
   sodipodi:docname="java_transparent.svg">
  <defs
     id="defs4201" />
  <sodipodi:namedview
     id="base"
     pagecolor="#ffffff"
     bordercolor="#666666"
     borderopacity="1.0"
     inkscape:pageopacity="0.0"
     inkscape:pageshadow="2"
     inkscape:zoom="0.35"
     inkscape:cx="-76.551528"
     inkscape:cy="680.14054"
     inkscape:document-units="px"
     inkscape:current-layer="layer1"
     showgrid="false"
     inkscape:window-width="1920"
     inkscape:window-height="1024"
     inkscape:window-x="0"
     inkscape:window-y="30"
     inkscape:window-maximized="1" />
  <metadata
     id="metadata4204">
    <rdf:RDF>
      <cc:Work
         rdf:about="">
        <dc:format>image/svg+xml</dc:format>
        <dc:type
           rdf:resource="http://purl.org/dc/dcmitype/StillImage" />
        <dc:title></dc:title>
      </cc:Work>
    </rdf:RDF>
  </metadata>
  <g
     inkscape:label="Capa 1"
     inkscape:groupmode="layer"
     id="layer1"
     transform="translate(0,626.92087)">
    <path
       style="opacity:1;fill:#cccccc;fill-opacity:0.78431373;stroke:none"
       d="M 830.86719 5.0039062 A 834.28571 832.85712 0 0 0 0.00390625 840.12891 A 834.28571 832.85712 0 0 0 835.42578 1670.7109 A 834.28571 832.85712 0 0 0 1668.5723 837.85547 L 1668.5586 833.30469 A 834.28571 832.85712 0 0 0 830.86719 5.0039062 z M 942.48633 121.64062 C 945.63543 121.69903 948.67971 123.31047 950.60352 126.17383 C 951.32342 127.24308 1021.7788 234.61558 958.38672 343.8125 C 929.50927 393.42042 880.159 435.82909 836.61914 473.24414 C 789.08117 514.09544 744.17703 552.67852 743.30664 586.6875 C 740.85003 684.34689 806.95993 820.4696 807.62695 821.83203 C 809.82327 826.31597 808.78537 831.82026 805.12891 835.0625 C 803.24171 836.73535 800.91989 837.57617 798.60156 837.57617 C 796.41744 837.57617 794.2287 836.83593 792.39844 835.33984 C 784.52832 828.91573 600.35289 676.4096 660.8125 536.60547 C 695.61999 456.46794 760.58461 408.02838 817.9043 365.29297 C 857.86906 335.50062 892.38003 309.76491 908.0918 279.53711 C 946.21816 206.38418 932.51541 135.37895 932.37305 134.67188 C 931.36438 129.67487 933.8097 124.61362 938.22266 122.55273 C 939.60298 121.91006 941.05492 121.61408 942.48633 121.64062 z M 1053.2734 394.05664 C 1056.8851 394.05624 1060.3433 396.10427 1062.1797 399.62891 C 1064.6282 404.32843 1063.4413 410.21796 1059.3984 413.44727 C 1058.223 414.38286 941.66753 507.75764 915.92188 556.92578 C 893.95468 599.08777 908.43302 621.91678 928.48047 653.51562 C 941.42244 673.91325 956.09024 697.03071 962.24805 728.66406 C 978.78141 811.89723 886.60491 880.98119 882.67188 883.88281 C 880.91889 885.17626 878.88861 885.81445 876.86719 885.81445 C 874.49192 885.81445 872.12207 884.9348 870.22266 883.19727 C 866.70856 879.9809 865.69556 874.64657 867.76172 870.24023 C 874.92821 854.92585 891.97425 809.69768 884.7793 784.67383 C 882.22507 775.9905 874.46893 765.82154 865.48438 754.04688 C 842.58171 724.01738 811.21484 682.89379 811.21484 605.05859 C 811.21484 492.13655 1039.9271 398.68517 1049.6641 394.76172 C 1050.8476 394.2853 1052.0695 394.05678 1053.2734 394.05664 z M 1184.5996 814.37695 C 1221.7335 814.37695 1268.8484 831.05265 1282.4004 910.51758 C 1304.6117 1040.1854 1094.5263 1089.2588 1085.5703 1091.2852 C 1084.8626 1091.449 1084.1509 1091.5273 1083.4473 1091.5273 C 1079.4207 1091.5273 1075.6828 1088.9837 1074.0762 1084.918 C 1072.185 1080.1451 1073.7664 1074.6183 1077.8418 1071.7598 C 1115.5736 1045.2959 1211.8467 965.88557 1204.3223 916.87695 C 1195.8258 860.06886 1102.0295 859.25791 1101.0859 859.25391 C 1096.4248 859.24959 1092.3631 855.88381 1091.2324 851.09375 C 1090.1057 846.29938 1092.187 841.30517 1096.2949 838.97266 C 1098.0682 837.96809 1140.1852 814.37695 1184.5996 814.37695 z M 670.05664 832.00195 C 675.29118 832.00195 679.66737 836.21332 680.17578 841.73633 C 680.68418 847.25934 677.15451 852.28817 672.01758 853.35742 C 618.27706 864.56296 574.90726 882.83876 567.875 893.07422 C 581.57755 899.26982 637.55176 907.66016 747.46094 907.66016 C 845.68492 907.66016 987.29683 899.86968 1063.1309 877.91992 C 1067.7309 876.57905 1072.5463 878.80762 1074.7793 883.24414 C 1077.0122 887.68496 1076.0523 893.17283 1072.4609 896.4668 C 1069.1665 899.48915 989.29898 970.59886 773.9668 978.77344 C 754.23252 979.52363 734.96653 979.90234 716.7168 979.90234 L 716.69922 979.90234 C 582.01645 979.90234 494.19627 959.80798 469.40234 923.32422 C 461.98369 912.40323 460.13386 900.04995 464.05469 887.61133 C 480.5677 834.68788 638.55175 832.00595 670.05664 832.00195 z M 624.34375 984.33203 C 628.89056 984.1269 633.12594 987.18684 634.49609 991.96289 C 636.06605 997.42123 633.34628 1003.232 628.29883 1005.2109 C 623.72724 1007.0433 616.6363 1011.6782 615.31445 1015.5801 C 615.14363 1016.0759 614.83879 1016.968 615.80273 1018.9297 C 623.0831 1025.9143 673.07891 1035.4395 749.53906 1035.4395 C 783.51276 1035.4395 817.50943 1033.5345 847.86328 1029.9258 C 924.34377 1020.9234 977.02416 1006.2462 977.54883 1006.0996 C 980.43251 1005.289 983.53558 1005.8618 985.99219 1007.6855 L 1036.3652 1045.0879 C 1039.6271 1047.5109 1041.2575 1051.7363 1040.5254 1055.8926 C 1039.7892 1060.0488 1036.8368 1063.3638 1032.9648 1064.377 C 1031.3786 1064.7952 872.74009 1105.9531 748.99414 1105.9531 L 748.97266 1105.9531 C 736.85634 1105.9531 725.281 1105.5574 714.58008 1104.7812 C 640.16168 1099.3102 552.1342 1078.6318 548.94141 1038.3496 C 547.14369 1015.6281 571.85331 997.55082 622.38477 984.625 C 623.03959 984.45793 623.69421 984.36134 624.34375 984.33203 z M 654.92578 1122.5566 C 659.48923 1122.4963 663.55201 1125.5184 664.90234 1130.123 C 666.25673 1134.7277 664.56508 1139.7251 660.75 1142.3594 C 658.92383 1143.7822 658.684 1145.421 658.87109 1146.7188 C 671.87001 1153.6255 739.64656 1164.1797 800.58203 1164.1797 C 817.54245 1164.1797 831.99818 1163.3357 843.54102 1161.6758 C 904.54157 1152.8933 944.96062 1144.0065 945.36328 1143.916 C 947.88497 1143.3685 950.52977 1143.8424 952.73828 1145.2695 L 1016.3984 1186.4668 C 1019.5871 1188.532 1021.4493 1192.2866 1021.25 1196.2402 C 1021.0507 1200.1982 1018.8233 1203.7157 1015.4434 1205.4102 C 1011.9578 1207.1563 928.71294 1248.1816 805.10938 1248.1816 C 793.56245 1248.1816 781.88108 1247.8146 770.37891 1247.0859 C 673.15547 1241.1059 615.4979 1225.1569 594.13672 1198.3223 C 586.4781 1188.7033 583.2372 1177.745 584.49805 1165.7461 C 588.66291 1125.5933 648.15382 1122.7463 654.92578 1122.5566 z M 553.86133 1214.9766 C 558.96333 1214.8081 563.44907 1218.661 564.24219 1224.1016 C 565.08817 1229.9048 561.39965 1235.3583 555.94141 1236.3672 C 507.50051 1245.3308 461.95535 1261.1887 455.43555 1271.1094 C 472.33903 1286.0012 601.11313 1311.5469 777.07031 1311.5469 C 805.83387 1311.5426 834.06913 1310.7921 860.99023 1309.3047 C 1057.5114 1298.7415 1175.5426 1263.5732 1187.2441 1251.9883 C 1192.4664 1246.448 1191.432 1242.3735 1189.6465 1239.9375 C 1186.3275 1235.889 1186.4062 1229.9692 1189.7129 1225.9121 C 1193.0277 1221.8593 1198.7283 1221.1007 1202.9785 1223.998 C 1204.7437 1225.2009 1220.2771 1236.2672 1222.4531 1254.3496 C 1223.3357 1261.6964 1222.2168 1272.9453 1211.8535 1284.832 C 1182.5816 1318.4184 1030.6255 1371.7903 747.50586 1372.0449 C 747.50299 1372.0449 747.49913 1372.0445 747.49219 1372.041 C 459.0716 1372.041 397.02628 1337.8598 375.44141 1312.1504 C 366.61955 1301.639 362.88932 1289.567 364.35352 1276.2617 C 369.17321 1232.6123 461.53745 1221.0781 541.46289 1215.9043 C 546.83573 1215.5594 551.46739 1215.2585 552.83398 1215.0645 C 553.17868 1215.0168 553.52119 1214.9878 553.86133 1214.9766 z M 1262.7871 1293.3066 C 1264.3618 1293.2396 1265.964 1293.5612 1267.4648 1294.2969 C 1271.4588 1296.2586 1273.8114 1300.7152 1273.2949 1305.3457 C 1272.9248 1308.6569 1262.5158 1386.8037 1113.8457 1414.4316 C 1034.1115 1429.1683 949.70309 1436.6406 862.96094 1436.6406 C 682.1068 1436.6406 549.83716 1403.791 548.52344 1403.459 C 543.43125 1402.1742 540.08674 1396.9956 540.80664 1391.4941 C 541.52247 1385.9927 546.03354 1381.9315 551.30469 1382.2031 C 552.56553 1382.2592 678.77695 1387.791 811.41797 1387.791 C 943.81088 1387.791 1035.7831 1382.5134 1084.7812 1372.1055 C 1212.7652 1344.3999 1255.3291 1297.2145 1255.748 1296.7402 C 1257.6164 1294.606 1260.1627 1293.4183 1262.7871 1293.3066 z "
       transform="translate(0,-626.92087)"
       id="path4156" />
  </g>
</svg>
