<?xml version="1.0" encoding="UTF-8" standalone="no"?>
<!-- Created with Inkscape (http://www.inkscape.org/) -->

<svg
   xmlns:dc="http://purl.org/dc/elements/1.1/"
   xmlns:cc="http://creativecommons.org/ns#"
   xmlns:rdf="http://www.w3.org/1999/02/22-rdf-syntax-ns#"
   xmlns:svg="http://www.w3.org/2000/svg"
   xmlns="http://www.w3.org/2000/svg"
   xmlns:sodipodi="http://sodipodi.sourceforge.net/DTD/sodipodi-0.dtd"
   xmlns:inkscape="http://www.inkscape.org/namespaces/inkscape"
   width="473.931mm"
   height="473.931mm"
   viewBox="0 0 1679.2831 1679.2831"
   id="svg4199"
   version="1.1"
   inkscape:version="0.91 r13725"
   sodipodi:docname="photoshop_transparent.svg">
  <defs
     id="defs4201" />
  <sodipodi:namedview
     id="base"
     pagecolor="#ffffff"
     bordercolor="#666666"
     borderopacity="1.0"
     inkscape:pageopacity="0.0"
     inkscape:pageshadow="2"
     inkscape:zoom="0.35"
     inkscape:cx="301.37199"
     inkscape:cy="908.71197"
     inkscape:document-units="px"
     inkscape:current-layer="layer1"
     showgrid="false"
     inkscape:window-width="1920"
     inkscape:window-height="1024"
     inkscape:window-x="0"
     inkscape:window-y="30"
     inkscape:window-maximized="1" />
  <metadata
     id="metadata4204">
    <rdf:RDF>
      <cc:Work
         rdf:about="">
        <dc:format>image/svg+xml</dc:format>
        <dc:type
           rdf:resource="http://purl.org/dc/dcmitype/StillImage" />
        <dc:title></dc:title>
      </cc:Work>
    </rdf:RDF>
  </metadata>
  <g
     inkscape:label="Capa 1"
     inkscape:groupmode="layer"
     id="layer1"
     transform="translate(0,626.92087)">
    <path
       style="opacity:1;fill:#cccccc;fill-opacity:0.78431373;stroke:none;stroke-width:0;stroke-miterlimit:4;stroke-dasharray:none"
       d="M 849.21094 2.3847656 A 824.28571 835.71429 0 0 0 685.10156 15.025391 A 824.28571 835.71429 0 0 0 12.505859 950.37891 A 824.28571 835.71429 0 0 0 906.88672 1669.8574 A 824.28571 835.71429 0 0 0 1652.3906 793.1543 L 1634.3125 658.25391 A 824.28571 835.71429 0 0 0 849.21094 2.3847656 z M 390 389.2832 L 1290 389.2832 L 1290 1289.2832 L 390 1289.2832 L 390 389.2832 z M 462.75195 462.5332 L 462.75195 1218.2617 L 1217.248 1218.2617 L 1217.248 462.5332 L 462.75195 462.5332 z M 716.82031 639.76172 C 807.91652 647.03727 818.16426 673.21929 835.59766 697.72266 C 863.56599 744.90199 857.91074 811.47817 808.10156 859.3457 C 787.26238 882.73242 756.38858 889.58935 723.96875 893.9043 L 685.47461 893.9043 L 684.92383 1012.0547 L 607.92969 1012.0547 L 606.83203 641.43359 L 716.82031 639.76172 z M 715.7168 698.8418 L 682.16992 699.95312 L 683.27344 828.69141 L 717.91797 829.25 C 744.90618 826.85447 775.07952 801.27047 775.10742 767.94727 C 775.12996 742.35066 766.11983 702.86007 715.7168 698.8418 z M 1001.6777 725.58984 C 1027.2991 729.31589 1042.6075 735.65392 1056.6699 742.30859 L 1058.8691 808.07227 C 1047.204 799.9052 1032.4393 791.92342 996.17773 785.22266 C 982.59242 785.71605 968.76548 783.26238 956.58398 800.82812 C 957.13609 810.11681 954.01296 819.40471 974.18164 828.69336 L 1022.5742 848.20117 C 1046.9314 863.84583 1073.2678 876.92837 1072.0684 925.66797 C 1070.8743 957.86694 1059.4828 983.17658 1031.9238 997.5625 C 1000.9409 1016.8009 982.1667 1013.8317 953.2832 1015.3965 C 928.18462 1011.7248 910.05032 1008.4591 880.69531 990.875 L 879.59375 929.01172 C 899.35333 938.96225 919.50911 951.32611 939.44141 953.83203 C 953.13184 955.39771 965.34483 955.38332 978.03125 951.86133 C 997.09472 938.96756 991.30962 924.83582 984.62891 908.94727 C 974.65209 896.1487 958.09582 893.65693 940.08594 887.21289 C 924.32149 881.92671 908.55742 873.53018 892.79297 859.3457 C 873.59752 838.67802 872.41787 817.95404 877.94531 795.8125 C 890.63132 756.82285 903.47557 753.93634 917.53906 742.86719 C 936.06019 728.42037 968.83697 726.97556 1001.6777 725.58984 z "
       transform="translate(0,-626.92087)"
       id="path4289" />
  </g>
</svg>
