<?xml version="1.0" encoding="UTF-8" standalone="no"?>
<!-- Generator: Adobe Illustrator 19.0.0, SVG Export Plug-In . SVG Version: 6.00 Build 0)  -->

<svg
   xmlns:dc="http://purl.org/dc/elements/1.1/"
   xmlns:cc="http://creativecommons.org/ns#"
   xmlns:rdf="http://www.w3.org/1999/02/22-rdf-syntax-ns#"
   xmlns:svg="http://www.w3.org/2000/svg"
   xmlns="http://www.w3.org/2000/svg"
   xmlns:sodipodi="http://sodipodi.sourceforge.net/DTD/sodipodi-0.dtd"
   xmlns:inkscape="http://www.inkscape.org/namespaces/inkscape"
   version="1.1"
   id="Layer_1"
   x="0px"
   y="0px"
   viewBox="0 0 473.931 473.931"
   xml:space="preserve"
   inkscape:version="0.91 r13725"
   sodipodi:docname="python_material.svg"
   width="473.931"
   height="473.931"><metadata
     id="metadata51"><rdf:RDF><cc:Work
         rdf:about=""><dc:format>image/svg+xml</dc:format><dc:type
           rdf:resource="http://purl.org/dc/dcmitype/StillImage" /><dc:title></dc:title></cc:Work></rdf:RDF></metadata><defs
     id="defs49" /><sodipodi:namedview
     pagecolor="#ffffff"
     bordercolor="#666666"
     borderopacity="1"
     objecttolerance="10"
     gridtolerance="10"
     guidetolerance="10"
     inkscape:pageopacity="0"
     inkscape:pageshadow="2"
     inkscape:window-width="1920"
     inkscape:window-height="1024"
     id="namedview47"
     showgrid="false"
     inkscape:zoom="0.99592554"
     inkscape:cx="470.24588"
     inkscape:cy="182.45441"
     inkscape:window-x="0"
     inkscape:window-y="30"
     inkscape:window-maximized="1"
     inkscape:current-layer="Layer_1" /><ellipse
     style="opacity:1;fill:#666666;fill-opacity:1;stroke:none"
     id="path4747"
     ry="236.58896"
     rx="236.08693"
     cy="236.58894"
     cx="237.09099" /><path
     style="fill:#5c5c5c;fill-opacity:1"
     d="m 404.518,69.383 c 90.53282,96.56536 92.549,242.59 0,335.138 -92.541,92.541 -240.58482,89.02668 -333.376841,0.75307 z"
     id="path5"
     inkscape:connector-curvature="0"
     sodipodi:nodetypes="cscc" /><path
     style="fill:#4a86c5"
     d="m 462.646,309.275 c 0.868,-2.713 1.658,-5.456 2.432,-8.206 -0.771,2.754 -1.582,5.493 -2.432,8.206 z"
     id="path7"
     inkscape:connector-curvature="0" /><g
     id="g9"
     style="fill:#4d4d4d;fill-opacity:1"><polygon
       style="fill:#4d4d4d;fill-opacity:1"
       points="465.097,301.017 465.097,301.017 465.082,301.07 "
       id="polygon11" /><path
       style="fill:#4d4d4d;fill-opacity:1"
       d="m 465.097,301.017 -98.25327,-98.75531 -37.31674,14.4933 -10.36301,24.42698 -13.396,10.556 -14.03604,12.94194 172.85252,38.13876 1.00044,-5.86806 -87.18061,-105.87619 -12.2547,-7.95709 -82.62719,-102.09479 -28.12426,11.610829 -36.28478,116.133041 -52.37332,-7.75038 -73.676287,58.90995 93.795457,97.42288 5.29592,18.56022 89.36563,93.62164 13.70836,-3.57726 c 74.15316,-19.55987 138.73774,-69.3401 165.41274,-152.6581 0.849,-2.716 3.66618,-9.46836 4.44018,-12.22236 0,-0.018 0.008,-0.041 0.015,-0.056 z"
       id="path13"
       inkscape:connector-curvature="0"
       sodipodi:nodetypes="ccccccccccccccccccccccc" /></g><g
     id="g17" /><g
     id="g19" /><g
     id="g21" /><g
     id="g23" /><g
     id="g25" /><g
     id="g27" /><g
     id="g29" /><g
     id="g31" /><g
     id="g33" /><g
     id="g35" /><g
     id="g37" /><g
     id="g39" /><g
     id="g41" /><g
     id="g43" /><g
     id="g45" /><path
     inkscape:connector-curvature="0"
     d="M 297.219,114.851 C 297.219,86.623 274.337,63.74 246.1,63.74 l -30.667,0 c -28.236,0 -51.113,22.883 -51.113,51.111 l 0,17.953 65.933,0 0,14.456 -96.642,0.041 c -28.229,0 -51.111,22.883 -51.111,51.12 l 0,30.666 c 0,28.229 22.883,51.112 51.111,51.112 l 29.344,0 0,-59.006 134.285,0 -0.021,-106.342 z m -106.352,2.55 c -4.112,0 -7.444,-3.332 -7.444,-7.438 0,-4.11 3.332,-7.444 7.444,-7.444 4.105,0 7.438,3.334 7.438,7.444 -0.001,4.106 -3.333,7.438 -7.438,7.438 z"
     id="path5-3"
     style="fill:#377ca5;fill-opacity:1" /><path
     inkscape:connector-curvature="0"
     d="m 341.388,174.971 -29.344,0 0,59.006 -134.285,0 0.021,106.343 c 0,28.228 22.883,51.111 51.119,51.111 l 30.667,0 c 28.236,0 51.113,-22.883 51.113,-51.111 l 0,-17.953 -65.933,0 0,-14.456 96.642,-0.041 c 28.228,0 51.111,-22.883 51.111,-51.119 l 0,-30.667 c 10e-4,-28.23 -22.882,-51.113 -51.111,-51.113 z M 284.133,337.77 c 4.113,0 7.444,3.332 7.444,7.438 0,4.11 -3.331,7.444 -7.444,7.444 -4.105,0 -7.438,-3.334 -7.438,-7.444 0,-4.106 3.333,-7.438 7.438,-7.438 z"
     id="path7-6"
     style="fill:#ffd344;fill-opacity:1" /></svg>