<?xml version="1.0" encoding="UTF-8" standalone="no"?>
<!-- Created with Inkscape (http://www.inkscape.org/) -->

<svg
   xmlns:dc="http://purl.org/dc/elements/1.1/"
   xmlns:cc="http://creativecommons.org/ns#"
   xmlns:rdf="http://www.w3.org/1999/02/22-rdf-syntax-ns#"
   xmlns:svg="http://www.w3.org/2000/svg"
   xmlns="http://www.w3.org/2000/svg"
   xmlns:sodipodi="http://sodipodi.sourceforge.net/DTD/sodipodi-0.dtd"
   xmlns:inkscape="http://www.inkscape.org/namespaces/inkscape"
   width="473.931mm"
   height="473.931mm"
   viewBox="0 0 1679.2831 1679.2831"
   id="svg4199"
   version="1.1"
   inkscape:version="0.91 r13725"
   sodipodi:docname="python_transparent.svg">
  <defs
     id="defs4201" />
  <sodipodi:namedview
     id="base"
     pagecolor="#ffffff"
     bordercolor="#666666"
     borderopacity="1.0"
     inkscape:pageopacity="0.0"
     inkscape:pageshadow="2"
     inkscape:zoom="0.35"
     inkscape:cx="-76.551528"
     inkscape:cy="680.14054"
     inkscape:document-units="px"
     inkscape:current-layer="layer1"
     showgrid="false"
     inkscape:window-width="1920"
     inkscape:window-height="1024"
     inkscape:window-x="0"
     inkscape:window-y="30"
     inkscape:window-maximized="1" />
  <metadata
     id="metadata4204">
    <rdf:RDF>
      <cc:Work
         rdf:about="">
        <dc:format>image/svg+xml</dc:format>
        <dc:type
           rdf:resource="http://purl.org/dc/dcmitype/StillImage" />
        <dc:title></dc:title>
      </cc:Work>
    </rdf:RDF>
  </metadata>
  <g
     inkscape:label="Capa 1"
     inkscape:groupmode="layer"
     id="layer1"
     transform="translate(0,626.92087)">
    <path
       style="opacity:1;fill:#cccccc;fill-opacity:0.78431373;stroke:none"
       d="M 835.02148 -0.70898438 A 831.42859 837.14288 0 0 0 7.0039062 838.71289 A 831.42859 837.14288 0 0 0 839.56445 1673.5684 A 831.42859 837.14288 0 0 0 1669.8574 836.42578 L 1669.8457 831.85352 A 831.42859 837.14288 0 0 0 835.02148 -0.70898438 z M 775.12305 273.2832 L 881.96289 273.2832 C 980.33729 273.2832 1060.0566 352.88978 1060.0566 451.0918 L 1060.1289 821.04492 L 592.29492 821.04492 L 592.29492 1026.3203 L 490.06445 1026.3203 C 391.72143 1026.3203 312 946.71137 312 848.50586 L 312 741.82227 C 312 643.58893 391.71795 563.98242 490.06445 563.98242 L 826.75391 563.83984 L 826.75391 513.54883 L 597.05078 513.54883 L 597.05078 451.0918 C 597.05078 352.88978 676.75219 273.2832 775.12305 273.2832 z M 689.53711 408.19141 C 675.21137 408.19141 663.60352 419.78966 663.60352 434.08789 C 663.60352 448.37219 675.21137 459.96289 689.53711 459.96289 C 703.83844 459.96289 715.45117 448.37219 715.45117 434.08789 C 715.45117 419.78966 703.83844 408.19141 689.53711 408.19141 z M 1111.7051 660.24219 L 1213.9355 660.24219 C 1312.282 660.24219 1392 739.84961 1392 838.05859 L 1392 944.74609 C 1392 1042.9759 1312.2785 1122.584 1213.9355 1122.584 L 877.24609 1122.7266 L 877.24609 1173.0176 L 1106.9492 1173.0176 L 1106.9492 1235.4746 C 1106.9492 1333.6766 1027.2479 1413.2832 928.87695 1413.2832 L 822.03711 1413.2832 C 723.66621 1413.2832 643.94336 1333.6766 643.94336 1235.4746 L 643.87109 865.51758 L 1111.7051 865.51758 L 1111.7051 660.24219 z M 1014.4648 1226.6016 C 1000.1635 1226.6016 988.55273 1238.1942 988.55273 1252.4785 C 988.55273 1266.7767 1000.1635 1278.375 1014.4648 1278.375 C 1028.7941 1278.375 1040.4004 1266.7767 1040.4004 1252.4785 C 1040.4004 1238.1942 1028.7941 1226.6016 1014.4648 1226.6016 z "
       transform="translate(0,-626.92087)"
       id="path4201" />
  </g>
</svg>
