<?xml version="1.0" encoding="UTF-8" standalone="no"?>
<!-- Created with Inkscape (http://www.inkscape.org/) -->

<svg
   xmlns:dc="http://purl.org/dc/elements/1.1/"
   xmlns:cc="http://creativecommons.org/ns#"
   xmlns:rdf="http://www.w3.org/1999/02/22-rdf-syntax-ns#"
   xmlns:svg="http://www.w3.org/2000/svg"
   xmlns="http://www.w3.org/2000/svg"
   xmlns:sodipodi="http://sodipodi.sourceforge.net/DTD/sodipodi-0.dtd"
   xmlns:inkscape="http://www.inkscape.org/namespaces/inkscape"
   width="473.931mm"
   height="473.931mm"
   viewBox="0 0 1679.2831 1679.2831"
   id="svg4199"
   version="1.1"
   inkscape:version="0.91 r13725"
   sodipodi:docname="raspberry_transparent.svg">
  <defs
     id="defs4201" />
  <sodipodi:namedview
     id="base"
     pagecolor="#ffffff"
     bordercolor="#666666"
     borderopacity="1.0"
     inkscape:pageopacity="0.0"
     inkscape:pageshadow="2"
     inkscape:zoom="0.35"
     inkscape:cx="492.85185"
     inkscape:cy="908.71197"
     inkscape:document-units="px"
     inkscape:current-layer="layer1"
     showgrid="false"
     inkscape:window-width="1920"
     inkscape:window-height="1024"
     inkscape:window-x="0"
     inkscape:window-y="30"
     inkscape:window-maximized="1" />
  <metadata
     id="metadata4204">
    <rdf:RDF>
      <cc:Work
         rdf:about="">
        <dc:format>image/svg+xml</dc:format>
        <dc:type
           rdf:resource="http://purl.org/dc/dcmitype/StillImage" />
        <dc:title></dc:title>
      </cc:Work>
    </rdf:RDF>
  </metadata>
  <g
     inkscape:label="Capa 1"
     inkscape:groupmode="layer"
     id="layer1"
     transform="translate(0,626.92087)">
    <path
       style="opacity:1;fill:#cccccc;fill-opacity:0.78431373;stroke:none;stroke-width:0;stroke-miterlimit:4;stroke-dasharray:none"
       d="M 839.28516 2.140625 A 834.28571 835.71429 0 0 0 5 837.85547 A 834.28571 835.71429 0 0 0 839.28516 1673.5684 A 834.28571 835.71429 0 0 0 1673.5723 837.85547 A 834.28571 835.71429 0 0 0 839.28516 2.140625 z M 1059.668 239.28711 C 1067.6435 239.17392 1076.2198 241.30447 1083.9141 247.97461 C 1089.5117 242.69556 1119.0869 234.41811 1132.7637 252.18164 C 1151.026 249.59608 1165.8949 251.43789 1173.9004 262.25586 C 1192.6004 259.65042 1211.4916 260.60709 1231.3223 279.05859 C 1255.161 279.41015 1288.9391 287.25592 1268.5996 329.875 C 1280.2821 334.79621 1286.5173 359.93544 1265.6016 378.17773 C 1276.0557 400.81012 1261.1457 413.19779 1253.6055 428.56836 C 1252.8477 462.79434 1241.1063 458.57 1233.0391 467.21094 C 1234.3922 494.85625 1215.8233 502.98056 1202.1816 515.92969 C 1197.3827 531.82752 1187.416 545.32604 1161.0449 551.20898 C 1153.0224 576.48481 1137.5701 577.75845 1120.7578 579.34375 C 1193.5184 621.62637 1231.3721 681.13625 1228.748 770.43555 L 1238.1777 786.39844 C 1298.2414 816.46325 1370.0578 942.45749 1270.7402 1058.5488 C 1267.8929 1090.4771 1256.8762 1114.396 1245.0332 1137.5078 C 1235.2823 1196.1804 1219.0501 1255.9601 1117.3359 1303.8203 C 1086.4919 1330.3672 1044.8704 1356.7205 991.35352 1374.3789 C 914.17611 1447.192 787.19205 1474.2878 687.95508 1372.6973 C 642.46509 1359.1995 607.2931 1333.0772 570.54688 1308.8672 C 521.67994 1283.1995 465.62447 1269.5547 434.27539 1140.873 L 407.70117 1058.5488 C 303.88205 940.41188 394.68644 809.23361 443.71484 785.4375 L 451.41016 769.60352 C 453.99374 703.05138 462.38515 640.06957 561.11523 582.2832 C 533.55032 578.34914 524.23792 566.28682 521.6875 551.20898 C 494.88939 543.23728 483.13496 529.19695 481.41016 513.40625 C 454.0872 502.98645 445.6522 485.44762 447.98828 463.84766 C 432.53302 462.50758 427.33112 446.81229 427.84375 423.11523 C 405.71133 410.05456 414.35964 392.68121 414.55664 376.49414 C 393.02995 349.22423 404.57541 340.84776 413.69922 330.71484 C 392.18657 288.46046 426.76751 275.27886 452.26953 281.57227 C 458.09235 260.71532 483.23021 260.45365 507.97461 261.41406 C 513.54838 250.8285 528.4744 250.23598 546.54492 253.01172 C 556.75942 241.53953 572.07516 237.37602 597.11133 247.13477 C 613.17709 237.6071 629.61509 235.73347 646.82031 249.6582 C 665.30732 244.83632 682.83683 243.20013 695.66992 257.21875 C 712.98895 255.11531 729.89703 249.27985 750.51758 277.37695 C 757.27069 273.3324 765.48309 275.00119 774.51758 279.90039 C 810.04309 309.07975 828.89739 343.70099 840.51367 380.69141 C 847.32091 348.39751 864.17859 316.6613 903.93359 283.25391 C 911.19238 279.00298 917.31621 270.43252 930.07422 276.96094 C 938.3716 273.89155 944.75246 244.39375 984.49805 258.05859 C 987.17125 253.16706 996.57567 240.54863 1031.6309 247.97461 C 1034.7449 245.90284 1046.3753 239.47593 1059.668 239.28711 z M 622.31055 267.83789 C 629.68382 280.64212 632.36186 291.446 628.65625 289.65039 C 616.82428 283.9169 587.28143 268.4732 573.30859 272.04297 C 584.31282 282.77784 589.24909 292.80312 586.03125 291.75781 C 580.56201 289.98118 559.85512 278.9424 533.58789 281.27734 C 542.78031 290.41758 547.67412 301.81237 542.2832 299.75195 C 536.96988 297.72116 489.61291 281.21618 480.08984 296.35156 C 488.6803 303.18843 492.24289 307.87906 489.83008 308.05273 C 482.41775 308.58667 450.40447 306.82001 437.29297 310.13281 C 456.84368 339.09715 459.9525 353.53974 456.01367 352.67578 C 449.71878 351.2951 441.10648 350.31981 435.125 352.97266 C 441.29097 371.4669 459.4497 383.03656 468.36719 392.17969 C 470.21667 394.0758 457.01657 394.63487 443.09375 392.5957 C 454.24718 412.38165 468.64133 421.78794 479.91992 434.35352 C 483.04588 437.83631 464.71733 431.98775 456.44727 434.59375 C 469.77238 450.22246 490.12987 463.74094 498.70508 471.23242 C 501.10639 473.33032 489.44529 474.68217 478.73047 475.11328 C 503.39022 493.88946 512.58991 499.30397 531.39062 505.39258 C 535.08161 506.5879 524.97946 512.03765 511.04883 513.60938 C 533.98918 531.43206 558.99366 531.69205 568.37695 538.31445 C 571.49147 540.51253 557.43218 540.1778 551.58203 546.60547 C 573.03968 559.92277 609.97622 552.65074 612.54102 560.9043 C 613.58193 564.25392 608.51834 566.71205 600.62891 572.40234 C 698.27307 577.3969 741.804 542.93086 755.66602 494.92969 C 687.2305 431.83569 611.71156 389.54898 535.39844 349.61719 C 616.76097 381.89679 696.84788 420.76236 773.66016 476.45508 C 811.06895 463.32182 847.19607 395.89125 757.79883 305.61328 C 755.00444 314.50432 756.02688 326.68432 752.9043 322.96094 C 749.20723 318.55256 729.49456 293.04057 713.01172 284.04102 C 713.04653 296.52412 709.9706 307.48492 707.02344 303.34766 C 701.43788 295.50642 698.71195 285.89017 670 274.70508 C 671.30812 285.03912 668.80913 299.85437 667.11523 295.17773 C 663.37041 284.83791 634.24329 271.97615 622.31055 267.83789 z M 1060.9512 267.83789 C 1049.0185 271.97614 1019.8914 284.83792 1016.1465 295.17773 C 1014.4527 299.85438 1011.9517 285.03912 1013.2598 274.70508 C 984.54785 285.89017 981.83164 295.50642 976.24609 303.34766 C 973.29892 307.48492 970.22401 296.52412 970.25781 284.04102 C 953.77497 293.04057 934.05448 318.55257 930.35742 322.96094 C 927.23484 326.68432 928.25728 314.50432 925.46289 305.61328 C 836.06564 395.89125 872.19278 463.32181 909.60156 476.45508 C 986.41384 420.76235 1066.4987 381.89684 1147.8613 349.61719 C 1071.5482 389.54898 996.03904 431.83568 927.60352 494.92969 C 941.46555 542.93085 984.9867 577.3969 1082.6309 572.40234 C 1074.7415 566.71205 1069.6798 564.25392 1070.7207 560.9043 C 1073.2855 552.65074 1110.222 559.92277 1131.6797 546.60547 C 1125.8295 540.1778 1111.7781 540.51449 1114.8926 538.31641 C 1124.2759 531.69401 1149.2705 531.43206 1172.2109 513.60938 C 1158.2803 512.03765 1148.1782 506.5879 1151.8691 505.39258 C 1170.6699 499.30398 1179.8695 493.88947 1204.5293 475.11328 C 1193.8145 474.68218 1182.1553 473.33032 1184.5566 471.23242 C 1193.1318 463.74094 1213.4894 450.22247 1226.8145 434.59375 C 1218.5445 431.9877 1200.2158 437.83627 1203.3418 434.35352 C 1214.6204 421.78794 1229.0146 412.38165 1240.168 392.5957 C 1226.2452 394.63483 1213.0529 394.07576 1214.9023 392.17969 C 1223.8198 383.03656 1241.9707 371.46689 1248.1367 352.97266 C 1242.1552 350.31981 1233.5429 351.2951 1227.248 352.67578 C 1223.3092 353.53975 1226.416 339.09709 1245.9668 310.13281 C 1232.8553 306.82 1200.842 308.58667 1193.4297 308.05273 C 1191.0169 307.87906 1194.5814 303.18843 1203.1719 296.35156 C 1193.6488 281.21618 1146.2997 297.72115 1140.9863 299.75195 C 1135.5954 301.81237 1140.4892 290.41758 1149.6816 281.27734 C 1123.4144 278.9424 1102.6997 289.98119 1097.2305 291.75781 C 1094.0126 292.80312 1098.947 282.77783 1109.9512 272.04297 C 1095.9784 268.4732 1066.4355 283.91689 1054.6035 289.65039 C 1050.8979 291.44599 1053.5779 280.64212 1060.9512 267.83789 z M 835.58984 574.42578 C 798.75492 574.46832 768.79688 589.60876 740.6543 608.73438 C 694.64747 652.23129 717.60706 669.28473 733.98633 688.32422 C 813.26757 744.76421 930.74586 714.33606 946.69922 693.07422 C 954.9966 688.90331 994.68834 654.41542 936.39258 606.95117 C 897.04258 583.49229 864.23926 574.39265 835.58984 574.42578 z M 663.00195 599.32617 C 643.78619 602.4292 512.28103 585.66896 489.75586 741.18359 C 490.74786 755.74401 479.65072 779.95497 518.20703 760.68555 C 599.9452 716.42479 641.55913 670.03147 681.91016 623.57812 C 693.47792 610.3126 699.36152 602.3682 663.00195 599.32617 z M 1009.4062 599.58594 C 1007.201 599.57835 1005.0223 599.61002 1002.877 599.67773 C 976.47174 601.72443 972.40171 612.64495 986.69531 628.9668 C 1033.3691 682.59058 1085.2831 726.20907 1147.9004 764.93555 C 1179.8097 781.9477 1176.9746 763.77899 1175.5684 747.05078 C 1172.9869 636.82489 1077.7693 599.82111 1009.4062 599.58594 z M 975.73242 724.29297 C 974.73871 724.29805 973.75317 724.31411 972.77539 724.3418 C 888.29593 726.73035 858.78349 816.08089 866.70117 850.46875 C 877.63274 924.184 914.76235 975.72196 985.47852 997.17773 C 1031.7638 1007.2286 1104.4863 1001.0828 1126.6816 923.52148 C 1145.9113 866.24194 1121.3371 774.20902 1025.4824 732.86328 C 1008.3977 727.24308 992.8405 724.59224 978.73633 724.31445 C 977.72888 724.29481 976.72614 724.28788 975.73242 724.29297 z M 698.77344 730.26758 C 677.12053 729.96136 655.80277 734.80553 638.22852 744.15039 C 611.22341 758.79201 530.43663 822.65343 550.35547 919.37109 C 574.53195 1001.3897 628.32959 1014.5356 690.95508 1005.4863 C 804.20361 975.18074 815.21742 864.3611 814.58789 844.53516 C 811.65285 765.49296 754.10862 731.05001 698.77344 730.26758 z M 1188.791 804.07812 C 1181.9566 803.85513 1174.8944 808.06074 1169.6367 822.37891 C 1158.3787 862.85548 1156.3244 943.98334 1196.373 1020.3398 C 1208.3235 1044.1721 1232.7169 1045.2386 1249.1543 1010.4023 C 1276.5017 959.94537 1286.4476 869.87779 1209.707 814.82812 C 1205.9884 811.9697 1197.5781 804.3649 1188.791 804.07812 z M 478.75586 808.21875 C 478.22785 808.20302 477.69119 808.21517 477.14648 808.25586 C 471.91726 808.64651 465.9147 811.67389 458.95508 817.90625 C 431.53164 836.65575 358.04512 907.87229 426.65625 1023.6289 C 440.31597 1043.3949 454.57453 1051.076 470.50781 1025.1641 C 504.44651 970.35844 512.79406 866.11332 497.60156 825.52148 C 492.73887 814.96478 486.67594 808.45477 478.75586 808.21875 z M 841.04102 982.11133 C 801.57702 982.06169 762.40958 996.83318 735.79688 1028.6582 C 717.10923 1044.5025 674.90063 1108.8438 728.66797 1183.1582 C 761.52158 1230.3156 875.44576 1257.8387 934.38477 1204.5273 C 975.29849 1167.5204 1010.1322 1114.7223 958.53516 1036.125 C 930.87856 1001.2522 885.76687 982.16763 841.04102 982.11133 z M 1153.2656 1029.3867 C 1143.8949 1029.3199 1133.8807 1031.7847 1123.7207 1036.2734 C 1027.8213 1081.062 996.35899 1164.2611 992.75 1231.7832 C 991.64313 1269.1887 1013.2181 1289.1666 1070.3242 1281.8242 C 1185.1032 1249.0375 1221.9689 1155.4423 1200.3809 1072.0508 C 1191.3681 1041.9365 1173.8813 1029.5334 1153.2656 1029.3867 z M 518.07617 1048.3789 C 487.88254 1049.0051 475.76332 1069.4479 472.78906 1099.9277 C 471.48066 1178.6944 507.80749 1267.7211 621.86719 1278.1172 C 663.82173 1280.6735 677.79506 1261.5756 676.41211 1230.5996 C 677.0314 1175.5021 650.50776 1095.3887 546.72461 1052.4102 C 537.04808 1049.8351 528.52723 1048.5389 521.05469 1048.3809 C 520.04278 1048.3595 519.05016 1048.3587 518.07617 1048.3789 z M 843.05469 1273.125 C 841.80795 1273.1307 840.55636 1273.1466 839.29688 1273.1719 C 807.94977 1273.8014 772.55701 1280.6055 728.52539 1298.3125 C 696.77444 1313.5662 696.48059 1330.3679 713.69141 1347.8535 C 787.20641 1412.898 866.83651 1428.8218 955.17773 1351.9102 C 979.32055 1332.3876 989.29145 1310.7647 949.96289 1291.2422 C 914.37027 1282.0484 881.70343 1272.9488 843.05469 1273.125 z "
       transform="translate(0,-626.92087)"
       id="path4134" />
    <path
       style="fill:#cccccc;fill-opacity:0.78431374;fill-rule:evenodd;stroke:none;stroke-width:1px;stroke-linecap:butt;stroke-linejoin:miter;stroke-opacity:1"
       d="m 550.35891,292.44689 c 24.17648,82.01864 77.97124,95.17216 140.59678,86.12287 C 804.20422,348.26417 815.21338,237.435 814.58385,217.60906 810.50027,107.63733 700.71816,84.005243 638.23192,117.23134 611.22681,131.87296 530.44007,195.72923 550.35891,292.44689 Z"
       id="path4173"
       inkscape:connector-curvature="0"
       sodipodi:nodetypes="ccccc" />
    <path
       style="fill:#cccccc;fill-opacity:0.78431374;fill-rule:evenodd;stroke:none;stroke-width:1px;stroke-linecap:butt;stroke-linejoin:miter;stroke-opacity:1"
       d="m 866.70162,223.54855 c 10.93157,73.71525 48.06388,125.25008 118.78005,146.70585 46.28533,10.05086 119.00743,3.91144 141.20273,-73.6499 19.2297,-57.27954 -5.3507,-149.31246 -101.2054,-190.65819 C 900.51647,64.838272 857.3177,182.7926 866.70162,223.54855 Z"
       id="path4175"
       inkscape:connector-curvature="0"
       sodipodi:nodetypes="ccccc" />
    <path
       style="fill:#cccccc;fill-opacity:0.78431374;fill-rule:evenodd;stroke:none;stroke-width:1px;stroke-linecap:butt;stroke-linejoin:miter;stroke-opacity:1"
       d="m 735.8012,401.73382 c -18.68764,15.84432 -60.90518,80.18485 -7.13784,154.49929 32.85361,47.15736 146.77821,74.68115 205.71721,21.36988 40.91373,-37.00711 75.75173,-89.79656 24.15471,-168.39383 C 906.47579,343.56618 792.5749,333.84037 735.8012,401.73382 Z"
       id="path4177"
       inkscape:connector-curvature="0"
       sodipodi:nodetypes="ccscc" />
    <path
       style="fill:#cccccc;fill-opacity:0.78431374;fill-rule:evenodd;stroke:none;stroke-width:1px;stroke-linecap:butt;stroke-linejoin:miter;stroke-opacity:1"
       d="m 992.75388,604.86504 c 3.609,-67.52216 35.06192,-150.72315 130.96132,-195.51173 32.5119,-14.36393 63.5558,-8.02144 76.6653,35.78113 21.5881,83.39151 -15.277,176.97983 -130.056,209.76658 -57.1061,7.34242 -78.67748,-12.63046 -77.57062,-50.03598 z"
       id="path4179"
       inkscape:connector-curvature="0"
       sodipodi:nodetypes="ccccc" />
    <path
       style="fill:#cccccc;fill-opacity:0.78431374;fill-rule:evenodd;stroke:none;stroke-width:1px;stroke-linecap:butt;stroke-linejoin:miter;stroke-opacity:1"
       d="M 946.69635,66.151565 C 930.74299,87.413407 813.26439,117.84 733.98315,61.400011 c -16.37927,-19.039485 -39.34063,-36.092515 6.6662,-79.589433 50.03127,-34.001098 105.80182,-55.402211 195.74462,-1.78188 58.29577,47.464245 18.59976,81.951959 10.30238,86.122867 z"
       id="path4181"
       inkscape:connector-curvature="0"
       sodipodi:nodetypes="ccccc" />
    <path
       style="fill:#cccccc;fill-opacity:0.78431374;fill-rule:evenodd;stroke:none;stroke-width:1px;stroke-linecap:butt;stroke-linejoin:miter;stroke-opacity:1"
       d="m 1002.8787,-27.242825 c -26.40516,2.046696 -30.4786,12.968012 -16.18501,29.2899092 46.67381,53.6236898 98.58421,97.2460608 161.20141,135.9725458 31.9094,17.01214 29.0751,-1.16238 27.669,-17.89059 -2.6647,-113.7815739 -104.034,-149.538667 -172.6854,-147.371865 z"
       id="path4183"
       inkscape:connector-curvature="0"
       sodipodi:nodetypes="ccccc" />
    <path
       style="fill:#cccccc;fill-opacity:0.78431374;fill-rule:evenodd;stroke:none;stroke-width:1px;stroke-linecap:butt;stroke-linejoin:miter;stroke-opacity:1"
       d="m 1169.6383,195.45893 c -11.2579,40.47656 -13.3101,121.60307 26.7385,197.95958 11.9505,23.8323 36.3421,24.9007 52.7794,-9.93554 27.3475,-50.45697 37.2936,-140.5218 -39.447,-195.57145 -6.6109,-5.08159 -28.0532,-25.17986 -40.0709,7.54741 z"
       id="path4185"
       inkscape:connector-curvature="0"
       sodipodi:nodetypes="ccccc" />
    <path
       style="fill:#cccccc;fill-opacity:0.78431374;fill-rule:evenodd;stroke:none;stroke-width:1px;stroke-linecap:butt;stroke-linejoin:miter;stroke-opacity:1"
       d="m 489.7569,114.26162 c 0.992,14.56041 -10.10383,38.76789 28.45247,19.49847 C 599.94755,89.499335 641.55744,43.112669 681.90846,-3.3406733 693.47622,-16.606202 699.36481,-24.54871 663.00524,-27.59074 643.78947,-24.487711 512.28207,-41.25302 489.7569,114.26162 Z"
       id="path4187"
       inkscape:connector-curvature="0"
       sodipodi:nodetypes="ccccc" />
    <path
       style="fill:#cccccc;fill-opacity:0.78431374;fill-rule:evenodd;stroke:none;stroke-width:1px;stroke-linecap:butt;stroke-linejoin:miter;stroke-opacity:1"
       d="m 458.95382,190.98317 c 18.55906,-16.6196 30.35187,-10.39727 38.65089,7.61948 15.1925,40.59184 6.84534,144.83392 -27.09341,199.63953 -15.93318,25.91199 -30.19437,18.23013 -43.85409,-1.53585 -68.61113,-115.75662 4.87317,-186.97367 32.29661,-205.72316 z"
       id="path4189"
       inkscape:connector-curvature="0"
       sodipodi:nodetypes="ccccc" />
    <path
       style="fill:#cccccc;fill-opacity:0.78431374;fill-rule:evenodd;stroke:none;stroke-width:1px;stroke-linecap:butt;stroke-linejoin:miter;stroke-opacity:1"
       d="m 472.78833,473.00794 c 3.77871,-38.72383 22.32627,-61.24975 73.9345,-47.51606 103.78315,42.9785 130.30763,123.08768 129.68834,178.18522 1.38295,30.97601 -12.58728,50.07247 -54.54182,47.51611 C 507.80965,640.79713 471.47992,551.77458 472.78833,473.00794 Z"
       id="path4191"
       inkscape:connector-curvature="0"
       sodipodi:nodetypes="ccccc" />
    <path
       style="fill:#cccccc;fill-opacity:0.78431374;fill-rule:evenodd;stroke:none;stroke-width:1px;stroke-linecap:butt;stroke-linejoin:miter;stroke-opacity:1"
       d="m 728.52893,671.38751 c -31.7508,15.25369 -32.04939,32.05837 -14.83857,49.54397 73.51501,65.0445 153.14901,80.96742 241.49023,4.05573 24.14283,-19.52251 34.11282,-41.1449 -5.21574,-60.66741 -65.31695,-16.87173 -120.792,-33.40554 -221.43592,7.06771 z"
       id="path4193"
       inkscape:connector-curvature="0"
       sodipodi:nodetypes="ccccc" />
    <path
       style="fill:#cccccc;fill-opacity:0.78431374;fill-rule:evenodd;stroke:none;stroke-width:1px;stroke-linecap:butt;stroke-linejoin:miter;stroke-opacity:1"
       d="m 535.403,-277.30733 c 76.31312,39.93179 151.82434,82.22142 220.25986,145.31542 -13.86203,48.001165 -57.38541,82.467159 -155.02958,77.472604 7.88943,-5.69029 12.94873,-8.144765 11.90783,-11.494391 -2.56481,-8.253559 -39.50065,-0.981468 -60.9583,-14.298767 5.85015,-6.427669 19.90527,-6.096979 16.79075,-8.295061 -9.38329,-6.6224 -34.38238,-6.878462 -57.32274,-24.701145 13.93064,-1.57172 24.03278,-7.02365 20.3418,-8.21897 -18.80072,-6.0886 -27.99864,-11.49954 -52.6584,-30.27573 10.71482,-0.4311 22.37268,-1.78969 19.97137,-3.88758 -8.57521,-7.49148 -28.92937,-21.00626 -42.25448,-36.63498 8.27005,-2.606 26.59628,3.24377 23.47032,-0.23898 -11.27858,-12.56558 -25.67454,-21.97376 -36.82797,-41.75971 13.92282,2.03918 27.11872,1.47774 25.26924,-0.41833 -8.91749,-9.14312 -27.06768,-20.71011 -33.23366,-39.20434 5.98149,-2.65285 14.59001,-1.67787 20.88491,-0.29719 3.93882,0.86397 0.82995,-13.57724 -18.72076,-42.54147 13.11149,-3.31281 45.12525,-1.55019 52.53759,-2.08413 2.4128,-0.17368 -1.14704,-4.8578 -9.7375,-11.69466 9.52307,-15.13538 56.87234,1.36908 62.18567,3.39988 5.39092,2.06042 0.49844,-9.33696 -8.69399,-18.4772 26.26723,-2.33494 46.9744,8.70644 52.44364,10.48306 3.21784,1.04531 -1.7125,-8.98791 -12.71673,-19.72277 13.97284,-3.56977 43.51334,11.87595 55.34531,17.60945 3.70561,1.7956 1.02647,-9.00509 -6.3468,-21.80932 11.93274,4.13821 41.05766,16.99752 44.80258,27.33734 1.6938,4.67664 4.19685,-10.13936 2.88874,-20.47341 28.71195,11.1851 31.43362,20.80604 37.01918,28.64727 2.94716,4.13727 6.02373,-6.82257 5.98892,-19.30567 16.48284,8.99955 36.19859,34.51081 39.89565,38.91918 3.12258,3.72338 2.09669,-8.46466 4.89109,-17.3557 89.39724,90.27797 53.273,157.70813 15.86422,170.84139 -76.81228,-55.69272 -156.89523,-94.55635 -238.25776,-126.83599 z"
       id="path4197"
       inkscape:connector-curvature="0"
       sodipodi:nodetypes="cccscscscscscscscscscscscscscsccc" />
    <path
       sodipodi:nodetypes="cccscscscscscscscscscscscscscsccc"
       inkscape:connector-curvature="0"
       id="path4199"
       d="m 1147.8598,-277.30733 c -76.3131,39.93179 -151.82429,82.22142 -220.25981,145.31542 13.86203,48.001165 57.38541,82.467159 155.02961,77.472604 -7.8895,-5.69029 -12.9488,-8.144765 -11.9079,-11.494391 2.5648,-8.253559 39.5007,-0.981468 60.9583,-14.298767 -5.8501,-6.427669 -19.9052,-6.096979 -16.7907,-8.295061 9.3833,-6.6224 34.3824,-6.878462 57.3227,-24.701145 -13.9306,-1.57172 -24.0328,-7.02365 -20.3418,-8.21897 18.8007,-6.0886 27.9987,-11.49954 52.6584,-30.27573 -10.7148,-0.4311 -22.3727,-1.78969 -19.9713,-3.88758 8.5752,-7.49148 28.9293,-21.00626 42.2544,-36.63498 -8.27,-2.606 -26.5962,3.24377 -23.4703,-0.23898 11.2786,-12.56558 25.6746,-21.97376 36.828,-41.75971 -13.9228,2.03918 -27.1187,1.47774 -25.2693,-0.41833 8.9175,-9.14312 27.0677,-20.71011 33.2337,-39.20434 -5.9815,-2.65285 -14.59,-1.67787 -20.8849,-0.29719 -3.9388,0.86397 -0.8299,-13.57724 18.7208,-42.54147 -13.1115,-3.31281 -45.1253,-1.55019 -52.5376,-2.08413 -2.4128,-0.17368 1.147,-4.8578 9.7375,-11.69466 -9.5231,-15.13538 -56.8724,1.36908 -62.1857,3.39988 -5.3909,2.06042 -0.4984,-9.33696 8.694,-18.4772 -26.2672,-2.33494 -46.9744,8.70644 -52.4436,10.48306 -3.2179,1.04531 1.7124,-8.98791 12.7167,-19.72277 -13.9729,-3.56977 -43.5134,11.87595 -55.3453,17.60945 -3.7056,1.7956 -1.0265,-9.00509 6.3468,-21.80932 -11.9328,4.13821 -41.0577,16.99752 -44.8026,27.33734 -1.6938,4.67664 -4.1969,-10.13936 -2.8887,-20.47341 -28.712,11.1851 -31.43367,20.80604 -37.01923,28.64727 -2.94716,4.13727 -6.02373,-6.82257 -5.98892,-19.30567 -16.48284,8.99955 -36.19859,34.51081 -39.89565,38.91918 -3.12258,3.72338 -2.09669,-8.46466 -4.89108,-17.3557 -89.39725,90.27797 -53.27301,157.70813 -15.86423,170.84139 76.81228,-55.69272 156.89521,-94.55635 238.25771,-126.83599 z"
       style="fill:#cccccc;fill-opacity:0.78431374;fill-rule:evenodd;stroke:none;stroke-width:1px;stroke-linecap:butt;stroke-linejoin:miter;stroke-opacity:1" />
  </g>
</svg>
