<?xml version="1.0" encoding="UTF-8" standalone="no"?>
<!-- Generator: Adobe Illustrator 19.0.0, SVG Export Plug-In . SVG Version: 6.00 Build 0)  -->

<svg
   xmlns:dc="http://purl.org/dc/elements/1.1/"
   xmlns:cc="http://creativecommons.org/ns#"
   xmlns:rdf="http://www.w3.org/1999/02/22-rdf-syntax-ns#"
   xmlns:svg="http://www.w3.org/2000/svg"
   xmlns="http://www.w3.org/2000/svg"
   xmlns:sodipodi="http://sodipodi.sourceforge.net/DTD/sodipodi-0.dtd"
   xmlns:inkscape="http://www.inkscape.org/namespaces/inkscape"
   version="1.1"
   id="Layer_1"
   x="0px"
   y="0px"
   viewBox="0 0 473.931 473.931"
   xml:space="preserve"
   inkscape:version="0.91 r13725"
   sodipodi:docname="sketchUp_material.svg"
   width="473.931"
   height="473.931"><metadata
     id="metadata51"><rdf:RDF><cc:Work
         rdf:about=""><dc:format>image/svg+xml</dc:format><dc:type
           rdf:resource="http://purl.org/dc/dcmitype/StillImage" /><dc:title></dc:title></cc:Work></rdf:RDF></metadata><defs
     id="defs49" /><sodipodi:namedview
     pagecolor="#ffffff"
     bordercolor="#666666"
     borderopacity="1"
     objecttolerance="10"
     gridtolerance="10"
     guidetolerance="10"
     inkscape:pageopacity="0"
     inkscape:pageshadow="2"
     inkscape:window-width="1920"
     inkscape:window-height="1024"
     id="namedview47"
     showgrid="false"
     inkscape:zoom="0.99592557"
     inkscape:cx="218.63986"
     inkscape:cy="325.42159"
     inkscape:window-x="0"
     inkscape:window-y="30"
     inkscape:window-maximized="1"
     inkscape:current-layer="Layer_1" /><ellipse
     style="opacity:1;fill:#e46051;fill-opacity:1;stroke:none"
     id="path4747"
     ry="236.58896"
     rx="236.08693"
     cy="236.58894"
     cx="237.09099" /><path
     style="fill:#c33d38;fill-opacity:1"
     d="m 404.518,69.383 c 90.53282,96.56536 92.20299,242.24527 0,335.138 -92.541,93.23327 -240.58482,90.30435 -333.376841,0.75307 z"
     id="path5"
     inkscape:connector-curvature="0"
     sodipodi:nodetypes="cscc" /><path
     style="fill:#4a86c5"
     d="m 462.646,309.275 c 0.868,-2.713 1.658,-5.456 2.432,-8.206 -0.771,2.754 -1.582,5.493 -2.432,8.206 z"
     id="path7"
     inkscape:connector-curvature="0" /><g
     id="g9"
     style="fill:#a73835;fill-opacity:1"><polygon
       style="fill:#a73835;fill-opacity:1"
       points="465.097,301.017 465.097,301.017 465.082,301.07 "
       id="polygon11" /><path
       style="fill:#a73835;fill-opacity:1"
       d="m 465.097,301.017 c 3.73328,-16.91952 6.47088,-32.69286 7.68629,-52.71784 l -85.85774,-88.71134 -57.39856,57.16717 -10.36301,24.42698 -13.396,10.556 -14.03604,12.94194 102.56614,27.5958 -64.12366,-127.17912 -30.59627,126.84886 -44.25485,37.5209 -53.08332,-4.20038 -47.20014,56.43181 75.498,91.65346 c 79.52952,7.10353 198.39994,-49.73985 230.10398,-160.05588 0.849,-2.716 3.66618,-9.46836 4.44018,-12.22236 0,-0.018 0.008,-0.041 0.015,-0.056 z"
       id="path13"
       inkscape:connector-curvature="0"
       sodipodi:nodetypes="ccccccccccccccccc" /></g><g
     id="g17" /><g
     id="g19" /><g
     id="g21" /><g
     id="g23" /><g
     id="g25" /><g
     id="g27" /><g
     id="g29" /><g
     id="g31" /><g
     id="g33" /><g
     id="g35" /><g
     id="g37" /><g
     id="g39" /><g
     id="g41" /><g
     id="g43" /><g
     id="g45" /><g
     transform="matrix(16.941495,0,0,15.668251,74.859687,84.082976)"
     id="g3"
     style="fill:#d32e2a;fill-opacity:1"><g
       id="g5"
       style="fill:#d32e2a;fill-opacity:1"><path
         inkscape:connector-curvature="0"
         style="fill:#d32e2a;fill-opacity:1"
         d="m 12.354,0 c 0.021,0 0.043,0 0.063,0 1.746,1.36 6.01,4.794 6.01,4.794 0,0 -0.918,7.746 -1.278,10.869 C 13.021,16.82 8.936,18.02 4.778,19.147 4.408,17.913 2.087,11.634 2.087,11.634 2.087,11.634 1.089,4.067 0.719,1.535 4.578,1.003 8.516,0.552 12.354,0 Z M 12.066,1.151 C 8.719,1.608 5.344,2.037 1.965,2.461 2.175,3.019 2.42,3.542 2.637,4.092 4.715,3.771 6.908,3.488 9.031,3.164 9.343,3.117 9.761,2.992 9.958,3.037 c 0.183,0.042 0.521,0.443 0.703,0.64 0.725,0.78 1.313,1.441 2.046,2.078 1.387,-0.275 2.824,-0.5 4.219,-0.767 C 15.44,3.702 13.681,2.413 12.066,1.151 Z M 10.085,5.977 C 7.839,6.31 5.476,6.803 3.148,7.16 3.344,7.795 3.588,8.382 3.819,8.982 5.103,8.785 6.302,8.504 7.559,8.278 7.926,8.807 8.183,9.445 8.581,9.941 9.904,9.643 11.255,9.376 12.577,9.078 11.846,8.074 10.936,6.972 10.085,5.977 Z m -1.79,6.49 c -0.096,-0.178 -0.35,-0.95 -0.543,-0.895 -0.979,0.276 -2.275,0.503 -3.389,0.767 0.133,0.603 0.438,1.31 0.64,1.95 C 6.298,14.028 7.492,13.667 8.774,13.393 8.663,13.06 8.481,12.815 8.295,12.467 Z"
         id="path7-3" /></g></g><path
     style="fill:#e6e6e6;fill-rule:evenodd;stroke:none;stroke-width:1px;stroke-linecap:butt;stroke-linejoin:miter;stroke-opacity:1;fill-opacity:1"
     d="m 106.85494,121.77118 12.78,26.62499 125.31493,-16.32999 44.981,42.53907 72.16894,-12.71909 -82.35996,-59.99497 z"
     id="path5489"
     inkscape:connector-curvature="0"
     sodipodi:nodetypes="ccccccc" /><path
     style="fill:#e6e6e6;fill-rule:evenodd;stroke:none;stroke-width:1px;stroke-linecap:butt;stroke-linejoin:miter;stroke-opacity:1;fill-opacity:1"
     d="m 127.79993,195.78865 11.8925,28.93248 63.01246,-10.82749 17.57249,26.44748 68.51497,-13.66749 -42.24498,-48.98997 z"
     id="path5491"
     inkscape:connector-curvature="0" /><path
     style="fill:#e6e6e6;fill-rule:evenodd;stroke:none;stroke-width:1px;stroke-linecap:butt;stroke-linejoin:miter;stroke-opacity:1;fill-opacity:1"
     d="m 148.38992,277.2611 11.36,31.23999 64.25496,-14.555 -15.79749,-28.39998 z"
     id="path5493"
     inkscape:connector-curvature="0" /></svg>