<?xml version="1.0" encoding="UTF-8" standalone="no"?>
<!-- Created with Inkscape (http://www.inkscape.org/) -->

<svg
   xmlns:dc="http://purl.org/dc/elements/1.1/"
   xmlns:cc="http://creativecommons.org/ns#"
   xmlns:rdf="http://www.w3.org/1999/02/22-rdf-syntax-ns#"
   xmlns:svg="http://www.w3.org/2000/svg"
   xmlns="http://www.w3.org/2000/svg"
   xmlns:sodipodi="http://sodipodi.sourceforge.net/DTD/sodipodi-0.dtd"
   xmlns:inkscape="http://www.inkscape.org/namespaces/inkscape"
   width="473.931mm"
   height="473.931mm"
   viewBox="0 0 1679.2831 1679.2831"
   id="svg4199"
   version="1.1"
   inkscape:version="0.91 r13725"
   sodipodi:docname="sketchUp_transparent.svg">
  <defs
     id="defs4201" />
  <sodipodi:namedview
     id="base"
     pagecolor="#ffffff"
     bordercolor="#666666"
     borderopacity="1.0"
     inkscape:pageopacity="0.0"
     inkscape:pageshadow="2"
     inkscape:zoom="0.49497475"
     inkscape:cx="370.84578"
     inkscape:cy="896.8773"
     inkscape:document-units="px"
     inkscape:current-layer="layer1"
     showgrid="false"
     inkscape:window-width="1920"
     inkscape:window-height="1024"
     inkscape:window-x="0"
     inkscape:window-y="30"
     inkscape:window-maximized="1" />
  <metadata
     id="metadata4204">
    <rdf:RDF>
      <cc:Work
         rdf:about="">
        <dc:format>image/svg+xml</dc:format>
        <dc:type
           rdf:resource="http://purl.org/dc/dcmitype/StillImage" />
        <dc:title></dc:title>
      </cc:Work>
    </rdf:RDF>
  </metadata>
  <g
     inkscape:label="Capa 1"
     inkscape:groupmode="layer"
     id="layer1"
     transform="translate(0,626.92087)">
    <path
       style="opacity:1;fill:#cccccc;fill-opacity:0.78431373"
       d="M 841.42773 2.140625 A 841.42859 837.14288 0 0 0 0 839.2832 A 841.42859 837.14288 0 0 0 841.42773 1676.4258 A 841.42859 837.14288 0 0 0 1682.8574 839.2832 A 841.42859 837.14288 0 0 0 841.42773 2.140625 z M 1057.8457 257.4375 L 1466.5391 558.46289 L 1379.666 1242.877 L 541.83203 1459.8867 L 357.26953 990.2168 L 267.31445 355.12695 L 1057.8457 257.4375 z M 1034.0723 331.0918 L 351.71289 413.41992 L 396.66602 515.44531 L 893.66016 447.25977 L 1078.5176 620.50195 L 1367.4219 574.0332 L 1034.0723 331.0918 z M 899.2168 633.63281 L 430.50586 708.38477 L 476.97266 822.02734 L 731.02539 777.58008 L 799.7168 881.12109 L 1069.4258 828.08789 L 899.2168 633.63281 z M 747.1875 983.14648 L 512.83203 1032.6426 C 512.83203 1032.6426 554.28556 1163.7902 558.32617 1155.709 C 562.36678 1147.6278 813.98047 1099.1914 813.98047 1099.1914 L 747.1875 983.14648 z "
       transform="translate(0,-626.92087)"
       id="path4144" />
    <g
       transform="matrix(67.765981,0,0,62.673004,185.85083,-381.77857)"
       id="g3">
      <g
         id="g5" />
    </g>
  </g>
</svg>
