<?xml version="1.0" encoding="UTF-8" standalone="no"?>
<!-- Generator: Adobe Illustrator 19.0.0, SVG Export Plug-In . SVG Version: 6.00 Build 0)  -->

<svg
   xmlns:dc="http://purl.org/dc/elements/1.1/"
   xmlns:cc="http://creativecommons.org/ns#"
   xmlns:rdf="http://www.w3.org/1999/02/22-rdf-syntax-ns#"
   xmlns:svg="http://www.w3.org/2000/svg"
   xmlns="http://www.w3.org/2000/svg"
   xmlns:sodipodi="http://sodipodi.sourceforge.net/DTD/sodipodi-0.dtd"
   xmlns:inkscape="http://www.inkscape.org/namespaces/inkscape"
   version="1.1"
   id="Layer_1"
   x="0px"
   y="0px"
   viewBox="0 0 473.931 473.931"
   xml:space="preserve"
   inkscape:version="0.91 r13725"
   sodipodi:docname="synfig_material.svg"
   width="473.931"
   height="473.931"><metadata
     id="metadata51"><rdf:RDF><cc:Work
         rdf:about=""><dc:format>image/svg+xml</dc:format><dc:type
           rdf:resource="http://purl.org/dc/dcmitype/StillImage" /><dc:title></dc:title></cc:Work></rdf:RDF></metadata><defs
     id="defs49" /><sodipodi:namedview
     pagecolor="#ffffff"
     bordercolor="#666666"
     borderopacity="1"
     objecttolerance="10"
     gridtolerance="10"
     guidetolerance="10"
     inkscape:pageopacity="0"
     inkscape:pageshadow="2"
     inkscape:window-width="1920"
     inkscape:window-height="1024"
     id="namedview47"
     showgrid="false"
     inkscape:zoom="0.7042257"
     inkscape:cx="380.64686"
     inkscape:cy="179.72913"
     inkscape:window-x="0"
     inkscape:window-y="30"
     inkscape:window-maximized="1"
     inkscape:current-layer="g9" /><ellipse
     style="opacity:1;fill:#f2f2f2;fill-opacity:1;stroke:none"
     id="path4747"
     ry="236.58896"
     rx="236.08693"
     cy="236.58894"
     cx="237.09099" /><path
     style="fill:#e6e6e6;fill-opacity:1"
     d="m 404.518,69.383 c 90.53282,96.56536 92.549,242.59 0,335.138 -92.541,92.541 -240.58482,89.02668 -333.376841,0.75307 z"
     id="path5"
     inkscape:connector-curvature="0"
     sodipodi:nodetypes="cscc" /><g
     id="g9"
     style="fill:#bebebe;fill-opacity:1"><polygon
       style="fill:#bebebe;fill-opacity:1"
       points="465.097,301.017 465.097,301.017 465.082,301.07 "
       id="polygon11" /><path
       style="fill:#bebebe;fill-opacity:1"
       d="M 468.31723,285.66154 238.80213,58.160884 103.32915,351.57505 231.03988,473.85329 c 116.94737,5.71426 221.07825,-88.90765 237.27735,-188.19175 z"
       id="path13"
       inkscape:connector-curvature="0"
       sodipodi:nodetypes="ccccc" /></g><g
     id="g17" /><g
     id="g19" /><g
     id="g21" /><g
     id="g23" /><g
     id="g25" /><g
     id="g27" /><g
     id="g29" /><g
     id="g31" /><g
     id="g33" /><g
     id="g35" /><g
     id="g37" /><g
     id="g39" /><g
     id="g41" /><g
     id="g43" /><g
     id="g45" /><g
     id="g4180"
     transform="matrix(1.3641364,0,0,1.3479921,-455.69866,-33.84165)"><path
       inkscape:connector-curvature="0"
       id="path7"
       d="m 462.646,309.275 c 0.868,-2.713 1.658,-5.456 2.432,-8.206 -0.771,2.754 -1.582,5.493 -2.432,8.206 z"
       style="fill:#4a86c5" /><path
       sodipodi:nodetypes="ccccc"
       inkscape:connector-curvature="0"
       id="path4168"
       d="M 412.5098,284.36109 C 422.89296,170.68884 463.029,115.7182 508.00475,70.296199 554.7945,118.33594 593.5708,178.79653 602.7897,285.07109 556.98222,284.38594 530.67944,306.45629 507.29475,331.93107 462.604,284.89401 437.85703,285.34215 412.5098,284.36109 Z"
       style="fill:#1e4e7e;fill-opacity:1;fill-rule:evenodd;stroke:#000000;stroke-width:5.40000105;stroke-linecap:butt;stroke-linejoin:miter;stroke-miterlimit:4;stroke-dasharray:none;stroke-opacity:1" /><path
       sodipodi:nodetypes="ccccccccc"
       inkscape:connector-curvature="0"
       id="path4170"
       d="m 444.10478,192.14989 c 13.53832,5.82208 18.43509,3.67202 63.72247,38.78373 19.87775,-16.73382 40.57288,-30.94735 63.27872,-38.96123 -22.91532,12.86503 -42.69928,27.4577 -58.75247,44.10873 16.99867,18.45385 28.07624,36.19716 39.31623,53.95997 -13.88528,-16.60468 -26.63616,-33.36061 -43.84248,-49.52248 -17.73471,15.96377 -30.5085,32.80299 -44.46373,49.43373 10.74232,-16.25335 17.68417,-29.69436 39.49373,-54.13747 -18.65555,-18.16624 -37.97397,-33.75465 -58.75247,-43.66498 z"
       style="fill:#040000;fill-opacity:1;fill-rule:evenodd;stroke:none;stroke-width:1px;stroke-linecap:butt;stroke-linejoin:miter;stroke-opacity:1" /><path
       sodipodi:nodetypes="ccccccccc"
       inkscape:connector-curvature="0"
       id="path4172"
       d="m 488.30226,266.6111 c 5.88621,3.60992 11.27033,5.72512 19.16999,13.75625 11.19016,-10.20203 14.39952,-10.58153 19.87999,-13.75625 -6.22788,4.75661 -12.55862,9.2732 -18.10499,15.61999 8.1699,8.14933 10.54727,14.25423 15.08749,21.12249 -5.25877,-6.71894 -10.09336,-13.64998 -16.68499,-19.70249 -6.52064,6.07321 -11.63709,12.84853 -16.77374,19.61374 4.3401,-7.01741 7.84689,-13.97072 15.08749,-21.21124 -3.5753,-4.15673 -10.92198,-9.92977 -17.66124,-15.44249 z"
       style="fill:#040000;fill-opacity:1;fill-rule:evenodd;stroke:none;stroke-width:1px;stroke-linecap:butt;stroke-linejoin:miter;stroke-opacity:1" /><path
       sodipodi:nodetypes="ccccccccc"
       inkscape:connector-curvature="0"
       id="path4174"
       d="m 454.79052,239.97776 c -1.48291,-0.0714 12.1792,-23.96655 13.36698,-24.41196 -3.85053,8.9334 -8.06462,18.10077 -10.48021,25.9181 9.04467,5.72723 14.65242,11.24859 21.02316,16.81853 -7.30982,-4.77186 -14.03114,-10.72073 -22.40378,-13.36696 -0.96355,-0.60221 -13.03723,32.38407 -12.48839,31.94264 -0.24164,-0.0117 7.29844,-31.08753 9.28785,-33.57429 -6.87842,-4.51218 -15.47067,-7.4248 -24.85126,-9.60162 5.4342,0.6729 8.77187,0.47452 26.54565,6.27556 z"
       style="fill:#040000;fill-opacity:1;fill-rule:evenodd;stroke:none;stroke-width:1px;stroke-linecap:butt;stroke-linejoin:miter;stroke-opacity:1" /><path
       sodipodi:nodetypes="ccccccccc"
       inkscape:connector-curvature="0"
       id="path4176"
       d="m 468.42227,134.37367 c 8.7547,3.14255 16.77682,5.47926 39.31623,23.78499 18.93888,-16.6161 25.25765,-17.20124 36.29873,-23.78499 -11.84595,7.91092 -23.67514,15.85056 -33.90248,26.53623 13.01958,12.63815 20.49147,25.56829 29.28748,38.42874 -9.75103,-11.72863 -17.29108,-22.82554 -31.59498,-35.85499 -11.02095,9.75879 -21.22058,22.14579 -31.06249,35.67749 7.13441,-13.03985 16.4442,-25.86216 28.31124,-38.42874 -9.13624,-9.12865 -19.12682,-18.16238 -36.65373,-26.35873 z"
       style="fill:#040000;fill-opacity:1;fill-rule:evenodd;stroke:none;stroke-width:1px;stroke-linecap:butt;stroke-linejoin:miter;stroke-opacity:1" /><path
       sodipodi:nodetypes="ccccccccc"
       inkscape:connector-curvature="0"
       id="path4178"
       d="m 544.83598,211.76363 c 5.08833,8.17961 10.17666,15.03339 15.26499,28.13373 9.93425,-3.92692 17.69379,-4.95422 25.55999,-6.12374 -7.92306,2.64668 -15.76429,5.04788 -24.13999,9.05249 5.81609,13.92192 6.6158,22.82746 9.85125,34.16874 -4.0003,-10.74202 -6.41249,-20.68999 -12.51375,-32.48249 -9.84381,4.1195 -16.56548,9.57705 -23.16373,15.0875 5.07818,-5.07396 6.86332,-8.68435 21.92124,-18.19375 -6.49593,-17.8663 -9.48555,-23.21005 -12.78,-29.64248 z"
       style="fill:#040000;fill-opacity:1;fill-rule:evenodd;stroke:none;stroke-width:1px;stroke-linecap:butt;stroke-linejoin:miter;stroke-opacity:1" /></g></svg>