<?xml version="1.0" encoding="UTF-8" standalone="no"?>
<!-- Created with Inkscape (http://www.inkscape.org/) -->

<svg
   xmlns:dc="http://purl.org/dc/elements/1.1/"
   xmlns:cc="http://creativecommons.org/ns#"
   xmlns:rdf="http://www.w3.org/1999/02/22-rdf-syntax-ns#"
   xmlns:svg="http://www.w3.org/2000/svg"
   xmlns="http://www.w3.org/2000/svg"
   xmlns:sodipodi="http://sodipodi.sourceforge.net/DTD/sodipodi-0.dtd"
   xmlns:inkscape="http://www.inkscape.org/namespaces/inkscape"
   width="473.931mm"
   height="473.931mm"
   viewBox="0 0 1679.2831 1679.2831"
   id="svg4199"
   version="1.1"
   inkscape:version="0.91 r13725"
   sodipodi:docname="synfig_transparent.svg">
  <defs
     id="defs4201" />
  <sodipodi:namedview
     id="base"
     pagecolor="#ffffff"
     bordercolor="#666666"
     borderopacity="1.0"
     inkscape:pageopacity="0.0"
     inkscape:pageshadow="2"
     inkscape:zoom="0.35"
     inkscape:cx="492.85185"
     inkscape:cy="908.71197"
     inkscape:document-units="px"
     inkscape:current-layer="layer1"
     showgrid="false"
     inkscape:window-width="1920"
     inkscape:window-height="1024"
     inkscape:window-x="0"
     inkscape:window-y="30"
     inkscape:window-maximized="1" />
  <metadata
     id="metadata4204">
    <rdf:RDF>
      <cc:Work
         rdf:about="">
        <dc:format>image/svg+xml</dc:format>
        <dc:type
           rdf:resource="http://purl.org/dc/dcmitype/StillImage" />
        <dc:title></dc:title>
      </cc:Work>
    </rdf:RDF>
  </metadata>
  <g
     inkscape:label="Capa 1"
     inkscape:groupmode="layer"
     id="layer1"
     transform="translate(0,626.92087)">
    <path
       style="opacity:1;fill:#cccccc;fill-opacity:0.78431374;stroke:none"
       d="M 841.42773 1.2832031 A 838.57141 837.14288 0 0 0 2.8574219 838.42578 A 838.57141 837.14288 0 0 0 841.42773 1675.5684 A 838.57141 837.14288 0 0 0 1680 838.42578 A 838.57141 837.14288 0 0 0 841.42773 1.2832031 z M 831.42383 278.47461 C 1045.9856 483.91835 1223.8015 742.48165 1266.0762 1196.9688 C 1056.0188 1194.0387 935.40215 1288.4233 828.16797 1397.3672 C 623.23148 1196.2114 509.7513 1198.1272 393.51758 1193.9316 C 441.1312 707.80805 625.18044 472.72349 831.42383 278.47461 z "
       transform="translate(0,-626.92087)"
       id="path4134" />
    <path
       style="fill:#4a86c5"
       d="m 623.42424,673.55618 c 3.98035,-11.60224 7.60302,-23.33278 11.15232,-35.09326 -3.53554,11.77758 -7.25451,23.49102 -11.15232,35.09326 z"
       id="path7"
       inkscape:connector-curvature="0" />
    <path
       style="fill:#cccccc;fill-opacity:0.78431374;fill-rule:evenodd;stroke:none;stroke-width:1px;stroke-linecap:butt;stroke-linejoin:miter;stroke-opacity:1"
       d="m 538.40055,172.6663 c 62.0821,24.89834 84.53701,15.70353 292.20944,165.86006 C 921.76255,266.96356 1016.6633,206.17887 1120.7845,171.90722 1015.7027,226.925 924.98026,289.33109 851.36582,360.53984 929.31591,439.45841 980.11385,515.33834 1031.6566,591.30165 967.98346,520.29112 909.51229,448.63377 830.60999,379.51693 749.28468,447.78658 690.70845,519.80013 626.71454,590.92211 675.97514,521.41405 707.80809,463.93308 807.81927,359.40121 722.2713,281.71261 633.68364,215.0482 538.40055,172.6663 Z"
       id="path4170"
       inkscape:connector-curvature="0"
       sodipodi:nodetypes="ccccccccc" />
    <path
       style="fill:#cccccc;fill-opacity:0.78431374;fill-rule:evenodd;stroke:none;stroke-width:1px;stroke-linecap:butt;stroke-linejoin:miter;stroke-opacity:1"
       d="m 741.07507,491.10243 c 26.99214,15.43796 51.68187,24.48369 87.90701,58.82911 51.31425,-43.62936 66.03127,-45.2523 91.16283,-58.82911 -28.55892,20.34182 -57.58953,39.65718 -83.02329,66.79947 37.46437,34.85091 48.36618,60.95874 69.18607,90.33111 -24.11492,-28.7338 -46.28469,-58.37465 -76.51165,-84.25843 -29.90143,25.97231 -53.36372,54.94722 -76.91864,83.87889 19.90222,-30.01022 35.98316,-59.74631 69.18607,-90.71066 -16.3951,-17.77641 -50.08446,-42.46503 -80.9884,-66.04038 z"
       id="path4172"
       inkscape:connector-curvature="0"
       sodipodi:nodetypes="ccccccccc" />
    <path
       style="fill:#cccccc;fill-opacity:0.78431374;fill-rule:evenodd;stroke:none;stroke-width:1px;stroke-linecap:butt;stroke-linejoin:miter;stroke-opacity:1"
       d="m 587.4017,377.20396 c -6.80012,-0.30534 55.84964,-102.49384 61.29639,-104.39865 -17.65721,38.20402 -36.98159,77.40862 -48.05866,110.83972 41.47577,24.49271 67.19099,48.10501 96.40502,71.92506 -33.52033,-20.40703 -64.342,-45.84759 -102.73607,-57.1643 -4.41851,-2.57537 -59.78427,138.49168 -57.26748,136.60389 -1.10808,-0.05 33.46815,-132.94698 42.5909,-143.5817 -31.54208,-19.2965 -70.9432,-31.75243 -113.95937,-41.06168 24.91938,2.87768 40.22479,2.0293 121.72927,26.83766 z"
       id="path4174"
       inkscape:connector-curvature="0"
       sodipodi:nodetypes="ccccccccc" />
    <path
       style="fill:#cccccc;fill-opacity:0.78431374;fill-rule:evenodd;stroke:none;stroke-width:1px;stroke-linecap:butt;stroke-linejoin:miter;stroke-opacity:1"
       d="m 649.91224,-74.415845 c 40.14605,13.439232 76.93275,23.432259 180.29077,101.717392 C 917.05024,-43.757821 946.02595,-46.260194 996.65657,-74.415845 942.33509,-40.584502 888.09048,-6.6303371 841.1914,39.067327 900.89473,93.114844 935.15826,148.41107 975.49376,203.40926 930.77887,153.25134 896.20278,105.79499 830.60999,50.074064 780.07168,91.807892 733.29967,144.78136 688.16804,202.65017 720.884,146.88477 763.57551,92.049687 817.9937,38.308242 776.09803,-0.73076863 730.28465,-39.36385 649.91224,-74.415845 Z"
       id="path4176"
       inkscape:connector-curvature="0"
       sodipodi:nodetypes="ccccccccc" />
    <path
       style="fill:#cccccc;fill-opacity:0.78431374;fill-rule:evenodd;stroke:none;stroke-width:1px;stroke-linecap:butt;stroke-linejoin:miter;stroke-opacity:1"
       d="m 1000.3194,256.54519 c 23.3333,34.98041 46.6666,64.29085 70,120.31494 45.5551,-16.79362 81.1376,-21.18691 117.2093,-26.1884 -36.3324,11.31862 -72.2896,21.58745 -110.6977,38.71331 26.6706,59.53761 30.3378,97.62248 45.1745,146.12388 -18.344,-45.93864 -29.4055,-88.48151 -57.3838,-138.91257 -45.1403,17.61719 -75.96362,40.95661 -106.22094,64.52225 23.2868,-21.69898 31.47284,-37.13894 100.52334,-77.80624 -29.7881,-76.4059 -43.4975,-99.25864 -58.6047,-126.76717 z"
       id="path4178"
       inkscape:connector-curvature="0"
       sodipodi:nodetypes="ccccccccc" />
  </g>
</svg>
